<?xml version="1.0" encoding="utf-8"?>
<!-- Generator: Adobe Illustrator 25.3.1, SVG Export Plug-In . SVG Version: 6.00 Build 0)  -->
<svg version="1.1" id="Слой_1" xmlns="http://www.w3.org/2000/svg" xmlns:xlink="http://www.w3.org/1999/xlink" x="0px" y="0px"
	 viewBox="0 0 300 207.09" style="enable-background:new 0 0 300 207.09;" xml:space="preserve">
<style type="text/css">
	.st0{fill:#0F4F7A;}
	.st1{fill:#4C7F9E;}
	.st2{fill:#FFFFFF;}
	.st3{fill:#0D3F5B;}
	.st4{fill:#E6BD39;}
	.st5{fill:#074F68;}
	.st6{fill:#CC9B2E;}
	.st7{fill:#636F7F;}
	.st8{fill:#114268;}
	.st9{fill:#90BEBC;}
	.st10{fill:#5985A6;}
	.st11{fill:none;}
	.st12{fill:#231F20;}
	.st13{fill:#186189;}
	.st14{fill:#6996B2;}
	.st15{fill:#BA9330;}
	.st16{fill:#96711E;}
</style>
<g>
	<g>
		<path class="st2" d="M98.74,40.48c-1.71-0.58-5.01-1.62-5.12-0.95c-0.41,2.35,2.49,2.5,3.94,3.67c4.13,3.33,8.97,3.9,14.3,3.14
			c0.29-0.19,1.13-0.46,1.18-0.82c0.12-0.94-0.91-0.88-1.47-1.02C107.21,43.37,102.98,41.93,98.74,40.48z"/>
		<path class="st2" d="M118.89,41.06c-6.14-4.32-11.61-10.91-20.04-6.56c-1.52,0.32-2.57,0.5-3.59,0.77
			c-0.63,0.16-1.65-0.1-1.75,0.76c-0.1,0.9,0.95,0.88,1.56,1.09c6.36,2.2,12.82,4.06,19.39,5.52c1.25,0.28,2.57,0.47,3.86,0.09
			C119.25,42.44,120.01,41.85,118.89,41.06z"/>
		<path class="st2" d="M128.88,36.54c8.74-6.64,10.98-15.29,7.84-25.58c-0.19-0.68-0.35-1.38-0.59-2.05
			c-0.22-0.63-0.17-1.67-0.92-1.72c-0.98-0.07-0.76,1.02-0.89,1.63c-1.86,8.96-5.11,17.47-8.26,26.02
			c-0.39,1.06-1.36,2.64-0.44,3.26C126.85,38.91,127.89,37.29,128.88,36.54z"/>
		<path class="st2" d="M138.2,66.89c4.17-6.17,7.42-12.84,10.61-19.55c0.19-0.4,0.39-0.93-0.14-1.22c-0.53-0.29-0.87,0.2-1.16,0.51
			c-3.13,3.36-6.27,6.73-8.25,10.94c-1.31,2.78-2.3,5.68-2.54,8.78c-0.04,0.53-0.51,1.52,0.79,1.38
			C137.75,67.43,138,67.18,138.2,66.89z"/>
		<path class="st2" d="M140.49,69.58c0.75,0.84,2.01,0.17,3.26-0.08c0.35-0.14,0.93-0.29,1.45-0.57
			c6.94-3.84,11.46-16.49,8.53-23.86c-0.11-0.29-0.34-0.53-0.51-0.8c-0.25,0.37-0.56,0.71-0.75,1.11
			c-3.48,7.27-7.19,14.41-11.23,21.38C140.76,67.58,139.66,68.65,140.49,69.58z"/>
		<path class="st2" d="M170.56,25.31c5.19-3.57,8.97-8.25,12.51-13.15c0.17-0.23,0.35-0.7-0.14-0.8c-0.29-0.06-0.68,0.13-0.95,0.31
			c-3.23,2.19-6.47,4.39-9.12,7.28c-1.36,1.48-2.48,3.18-2.97,5.19C169.74,24.8,169.4,25.62,170.56,25.31z"/>
		<path class="st2" d="M176.97,28.54c7.11-1.81,11.28-7.69,11.56-16.28c0.02-0.69,0.29-1.68-0.4-1.94
			c-0.98-0.36-1.26,0.77-1.71,1.38c-3.51,4.75-7.21,9.31-11.63,13.26c-1.24,1.11-3.62,2.38-2.81,3.85
			C172.6,29.93,175.24,28.89,176.97,28.54z"/>
		<path class="st2" d="M127.66,77.66c0.73-0.35,1.85-0.76,2.83-1.39c3.06-1.97,3.03-4.16-0.19-5.73c-3.52-1.72-7.18-2.19-10.89-0.41
			c-2.44,1.17-4.88,2.34-7.36,3.41c-0.8,0.34-1.49,0.66-0.36,1.2C116.61,77.1,121.63,79.16,127.66,77.66z"/>
		<path class="st2" d="M123.56,34.66c2.33-5.29,4.81-10.52,6.36-16.11c0.63-2.27,1.09-4.59,1.55-6.9c0.08-0.38-0.24-0.84-0.38-1.27
			c-0.27,0.2-0.61,0.35-0.81,0.6c-5.58,6.81-8.94,14.4-8.17,23.94c-0.03-0.06,0.06,0.62,0.35,0.73
			C123.2,35.92,123.34,35.15,123.56,34.66z"/>
		<path class="st2" d="M158.13,25.73c-4.46-3.36-6.9-7.95-8.18-13.26c-0.38-1.36-0.74-2.73-1.16-4.08c-0.12-0.4-0.16-1-0.79-0.97
			c-0.62,0.03-0.64,0.64-0.71,1.04c-0.83,4.47-1.1,8.92,1.26,13.07c1.9,3.33,4.72,5.55,8.48,6.39c0.81,0.18,2.12,0.64,2.55-0.41
			C159.9,26.73,158.76,26.2,158.13,25.73z"/>
		<path class="st2" d="M152.3,10.71c-0.93,0.52,0.05,1.44,0.04,2.02c1.47,4.76,3.74,8.81,7.91,11.49c0.92,0.6,2.16,1.74,3.08,0.74
			c0.63-0.68-0.38-1.91-1-2.79c-2.6-3.64-5.42-7.09-8.53-10.3C153.36,11.42,152.96,10.35,152.3,10.71z"/>
		<path class="st2" d="M192.09,52.48c-0.42,0.73-0.64,1.55,0.55,1.12c5.4-1.94,11.34-0.85,16.96-3.3c1.49-0.42,3.31-0.92,5.12-1.46
			c0.29-0.09,0.52-0.37,0.78-0.56c-0.28-0.15-0.54-0.39-0.83-0.42c-5.6-0.59-11.2-2.02-16.77,0.24
			C195.53,49.06,193.39,50.17,192.09,52.48z"/>
		<path class="st2" d="M202.02,31.37c6.27-4.28,12.06-9.08,16.86-15.01c0.26-0.32,0.72-0.6,0.38-1.09
			c-0.04-0.06-0.46,0.03-0.62,0.16c-4.03,3.14-9.23,4.23-13.19,7.48c-2.51,2.05-4.63,4.4-4.97,7.85c-0.05,0.53-0.41,1.24,0.73,1.15
			C201.43,31.75,201.73,31.57,202.02,31.37z"/>
		<path class="st2" d="M216.79,51.44c-7.08,1.86-14.15,3.73-21.48,4.32c-1.02,0.29-2.06,0.54-3.07,0.89
			c-0.4,0.14-0.95,0.44-1.04,0.77c-0.21,0.74,0.56,0.92,1.04,1.19c7.44,4.24,20.23,1.2,25.22-5.97c0.27-0.4,0.58-0.81,0.3-1.24
			C217.67,51.26,217.11,51.36,216.79,51.44z"/>
		<path class="st2" d="M221.14,17.42c-2.37,2.3-4.63,4.72-7.1,6.91c-3.45,3.04-7.06,5.9-10.58,8.86c-0.6,0.5-1.65,0.99-1.28,1.88
			c0.34,0.81,1.43,0.6,2.25,0.6c2.12,0,4.25,0.04,6.55-0.62c7.21-1.42,11.44-10.73,11.7-17.11c0.02-0.48,0.06-1.1-0.42-1.21
			C221.94,16.67,221.46,17.12,221.14,17.42z"/>
		<path class="st2" d="M135.13,78.72c-0.43-1.3-0.67-1.6-2.11-0.72c-5.5,3.37-11.29,3.69-17.24,1.02c-2.15-0.97-4.39-1.74-6.62-2.52
			c-0.61-0.21-1.58-0.72-1.94-0.1c-0.47,0.81,0.66,1.04,1.14,1.41c2.53,1.95,4.99,4,7.68,5.69c4.89,3.06,10.2,4.25,16.61,2.56
			C135.92,85.27,136.68,83.41,135.13,78.72z"/>
		<path class="st2" d="M144.86,131.69c-0.49,0.72-1.5,1.65-0.88,2.44c0.68,0.85,1.68-0.24,2.47-0.43
			c9.62-2.58,15.11-8.81,16.55-18.6c0.09-0.65,0.56-1.43-0.2-1.93c-0.62-0.4-1.11,0.15-1.5,0.56
			C155.64,119.54,149.49,124.92,144.86,131.69z"/>
		<path class="st2" d="M140.52,130.06c-0.14,0.69-0.22,1.55,0.6,1.75c0.32,0.08,0.95-0.6,1.27-1.05c3.45-4.84,7.87-8.78,12-12.99
			c1.32-1.34,2.53-2.79,3.8-4.19c0.32-0.35,0.68-0.75,0.29-1.17c-0.13-0.14-0.63,0.05-0.71,0.06c-4.72,2.24-9.33,4.09-12.92,7.72
			C142.11,122.95,141.26,126.46,140.52,130.06z"/>
		<path class="st2" d="M187.42,89.15c-3.85,0.91-7.69,0.68-11.59,0.27c-5.4-0.56-10.83-0.6-16.23,0.07
			c-0.53,0.07-1.26,0.08-1.42,0.76c-0.14,0.57,0.48,0.71,0.88,0.93c6.91,3.84,14.33,4.23,21.56,3.39c3.02-1.03,5.13-2.78,7.37-4.28
			c0.4-0.27,0.83-0.67,0.61-1.14C188.32,88.57,187.81,89.06,187.42,89.15z"/>
		<path class="st2" d="M166.67,84.06c-1.13,0.32-2.28,0.58-3.38,0.99c-0.37,0.14-0.6,0.66-0.9,1c0.42,0.13,0.84,0.39,1.26,0.37
			c6.94-0.29,13.85,1.07,20.8,0.34c0.45-0.05,0.87-0.3,1.3-0.46c-0.35-0.27-0.67-0.64-1.07-0.78
			C178.82,83.4,172.88,82.16,166.67,84.06z"/>
		<path class="st6" d="M222.62,9.86c-4.28,4.54-10.21,6.32-15.4,9.34c-5.05,2.93-8.45,7.12-9.89,12.86
			c-0.92,3.68-2.04,7.31-3.92,10.64c-7.7,13.63-18.77,24.29-30.43,34.43c-0.42,0.37-1.18,0.9-1.49,0.75
			c-0.91-0.44-0.19-1.23-0.02-1.8c2.15-7.04,3.7-14.15,4.42-21.52c0.63-6.49,1.1-12.96,1.12-19.47c0.01-2.42,0.31-4.2,3.47-3.82
			c1.37,0.17,2.82-0.22,4.23-0.45c5.39-0.86,9.97-3.04,12.66-8.1c3.17-5.96,3.88-12.38,2.9-18.93c-0.33-2.22-1.93-2.41-3.08-0.45
			c-2.44,4.13-6.12,6.89-9.97,9.44c-4.18,2.77-7.45,6.24-9.32,10.89c-0.69,1.73-1.2,2.18-2.31,0.37
			c-5.01-8.17-13.03-14.15-16.89-23.17c-0.16-0.38-0.33-1.06-0.94-0.81c-0.36,0.14-0.69,0.63-0.81,1.03
			c-1.67,5.96-3.08,11.97-1.67,18.2c1.51,6.64,8.51,11.76,14.66,10.84c4-0.6,4.14-0.49,4.51,3.63c0.07,0.82,0.05,1.66,0.09,2.49
			c0.46,10.49-1,20.81-3.25,30.99c-1.33,5.99-2.58,12.18-6.37,17.21c-3.06,4.05-6.75,7.62-8.77,12.41c-0.24,0.58-0.49,1.55-1.4,1.22
			c-0.39-0.14-0.67-0.92-0.79-1.45c-0.81-3.58-1.56-7.18-2.5-11.54c-0.5-2.5-1.61-5.63-2.89-8.69c-0.99-2.38-0.79-3.65,2.18-3.97
			c3.21-0.35,5.99-1.66,8.44-4.07c8.65-8.49,7.79-18.71,5.69-29.2c-0.15-0.76-0.72-1.49-1.24-2.11c-0.86-1.02-1.84-1.33-2.28,0.31
			c-0.74,2.76-2.58,4.82-4.39,6.8c-5.07,5.53-10.01,11.07-11.88,18.65c-0.53,2.16-1.54,1.3-2.14,0.01
			c-2.48-5.37-4.82-10.81-7.35-16.17c-1.17-2.48-0.56-4.33,1.44-5.93c0.92-0.74,1.9-1.42,2.78-2.2c5.77-5.14,10.12-10.94,9.51-19.29
			c-0.41-5.69-1.99-11.19-2.49-16.86c-0.07-0.77-0.24-1.79-1.15-2.05c-1.17-0.33-1.61,0.71-2.11,1.49
			c-2.96,4.58-5.93,9.15-8.86,13.74c-3.33,5.23-4.93,10.98-5.12,17.16c-0.06,1.86,1.03,4.85-0.12,5.3c-1.8,0.7-3.8-1.35-5.44-2.59
			c-4.94-3.72-10.15-4.66-16.06-2.61c-3.23,1.12-6.66,1.74-10.1,0.54c-0.66-0.23-1.46-0.44-1.93,0.29
			c-0.45,0.69-0.07,1.41,0.37,1.96c5.32,6.58,11.3,12.16,20.25,13.21c3.76,0.44,7.24-0.26,10.66-1.93c4.68-2.3,5.43-1.89,7.45,2.72
			c2.56,5.86,5.2,11.68,7.77,17.53c0.23,0.52,0.56,1.29,0.34,1.64c-0.5,0.8-1.25,0.12-1.86-0.09c-5.71-2-11.14-1.62-16.33,1.69
			c-2.87,1.83-6.04,1.81-9.25,0.97c-1.03-0.27-2.07-0.58-3.11-0.65c-1.44-0.09-3.33-1.31-4.23,0.43c-0.91,1.75,1.05,2.59,2.1,3.62
			c0.51,0.5,0.96,1.04,1.43,1.58c5.29,6.08,11.99,9.97,19.6,12.32c4.99,1.54,10.17,1.84,14.97-0.3c2.55-1.14,2.56-0.17,3,1.67
			c2.1,8.87,2.41,17.74,0.79,26.75c-1.57,8.75-2.48,17.6-1.55,26.5c0.64,6.14,2.53,12.06,3.49,18.13
			c1.45,9.15,4.37,17.67,9.44,25.43c0.54,0.83,0.82,2.5,2.07,1.99c1.56-0.64,0.75-2.22,0.47-3.44c-0.08-0.34-0.29-0.65-0.41-0.98
			c-4.89-14-8.57-28.33-11.62-42.83c-0.5-2.37,0.33-3.71,2.65-4.61c3.53-1.37,6.94-3.02,10.26-4.88
			c9.15-5.12,10.58-13.99,11.16-23.13c0.18-2.87-0.91-3.16-3.3-1.52c-1.17,0.8-2.34,1.66-3.63,2.2c-5.49,2.27-10.91,4.62-15.34,8.75
			c-0.38,0.35-0.93,1.04-1.44,0.4c-0.28-0.36-0.15-1.13-0.05-1.69c1.28-7.69,4.14-14.78,8.21-21.39c1.54-2.5,3.64-3.6,6.59-2.34
			c1.41,0.6,2.9,1.03,4.33,1.59c14.64,5.7,23.2,2.93,34.64-8.19c0.87-0.84,1.18-1.7,0.76-2.85c-0.43-1.18-1.37-1.26-2.32-1.05
			c-5.93,1.34-11.51-0.27-17.09-1.94c-3.22-0.97-6.54-0.98-9.86-0.73c-0.79,0.06-1.92,0.84-2.27,0.11
			c-0.48-0.98,0.74-1.68,1.44-2.15c7.12-4.68,12.49-11.18,18.14-17.36c1.65-1.8,3.18-1.99,5.29-1.14c2.19,0.89,4.46,1.61,6.73,2.25
			c9.06,2.54,22.71-4.37,26.12-13.17c0.86-2.21-0.03-3.95-2.14-3.54c-7.63,1.49-15.33-2.36-22.91,0.47
			c-0.77,0.29-1.35,0.18-1.11-0.98c0.9-4.44,3.68-7.1,8.22-7.01c8.36,0.17,13.82-3.8,17.44-11.07c2.12-4.27,2.65-8.81,3.09-13.4
			c0.08-0.89-0.27-1.86-0.58-2.74C224.39,9.2,223.46,8.97,222.62,9.86z M169.9,24.14c0.49-2.01,1.61-3.71,2.97-5.19
			c2.66-2.89,5.9-5.09,9.12-7.28c0.27-0.18,0.66-0.37,0.95-0.31c0.49,0.1,0.3,0.57,0.14,0.8c-3.54,4.9-7.32,9.58-12.51,13.15
			C169.4,25.62,169.74,24.8,169.9,24.14z M171.97,28.81c-0.82-1.47,1.56-2.74,2.81-3.85c4.43-3.94,8.13-8.51,11.63-13.26
			c0.45-0.61,0.73-1.74,1.71-1.38c0.69,0.26,0.43,1.25,0.4,1.94c-0.28,8.6-4.45,14.47-11.56,16.28
			C175.24,28.89,172.6,29.93,171.97,28.81z M153.8,11.88c3.11,3.21,5.93,6.66,8.53,10.3c0.62,0.88,1.63,2.11,1,2.79
			c-0.92,1-2.16-0.15-3.08-0.74c-4.17-2.68-6.44-6.73-7.91-11.49c0.01-0.58-0.97-1.51-0.04-2.02
			C152.96,10.35,153.36,11.42,153.8,11.88z M159.59,27.51c-0.43,1.06-1.74,0.6-2.55,0.41c-3.76-0.84-6.58-3.06-8.48-6.39
			c-2.37-4.15-2.1-8.6-1.26-13.07c0.07-0.4,0.09-1.01,0.71-1.04c0.63-0.03,0.67,0.57,0.79,0.97c0.42,1.35,0.78,2.72,1.16,4.08
			c1.28,5.31,3.71,9.9,8.18,13.26C158.76,26.2,159.9,26.73,159.59,27.51z M122.1,34.92c-0.77-9.54,2.59-17.13,8.17-23.94
			c0.21-0.25,0.54-0.4,0.81-0.6c0.14,0.42,0.45,0.88,0.38,1.27c-0.46,2.31-0.92,4.63-1.55,6.9c-1.55,5.59-4.03,10.83-6.36,16.11
			c-0.22,0.49-0.35,1.26-1.1,0.99C122.16,35.54,122.08,34.86,122.1,34.92z M126.06,34.83c3.14-8.55,6.4-17.06,8.26-26.02
			c0.13-0.61-0.09-1.7,0.89-1.63c0.75,0.06,0.7,1.09,0.92,1.72c0.23,0.67,0.39,1.36,0.59,2.05c3.14,10.29,0.9,18.94-7.84,25.58
			c-0.99,0.75-2.03,2.38-3.25,1.55C124.7,37.47,125.68,35.89,126.06,34.83z M113.03,45.52c-0.05,0.36-0.88,0.63-1.18,0.82
			c-5.33,0.76-10.17,0.19-14.3-3.14c-1.45-1.17-4.35-1.32-3.94-3.67c0.12-0.66,3.41,0.37,5.12,0.95c4.24,1.45,8.48,2.89,12.82,4.01
			C112.12,44.64,113.15,44.58,113.03,45.52z M114.46,42.63c-6.57-1.46-13.03-3.32-19.39-5.52c-0.61-0.21-1.66-0.19-1.56-1.09
			c0.09-0.86,1.12-0.59,1.75-0.76c1.03-0.27,2.08-0.45,3.59-0.77c8.44-4.35,13.9,2.24,20.04,6.56c1.12,0.79,0.36,1.38-0.57,1.66
			C117.03,43.1,115.72,42.91,114.46,42.63z M152.47,45.37c0.19-0.4,0.49-0.74,0.75-1.11c0.17,0.27,0.39,0.51,0.51,0.8
			c2.93,7.37-1.59,20.02-8.53,23.86c-0.51,0.28-1.1,0.44-1.45,0.57c-1.25,0.25-2.51,0.92-3.26,0.08c-0.83-0.93,0.27-2,0.75-2.83
			C145.28,59.78,148.99,52.64,152.47,45.37z M136.71,66.34c0.24-3.09,1.24-6,2.54-8.78c1.98-4.21,5.12-7.58,8.25-10.94
			c0.29-0.31,0.64-0.8,1.16-0.51c0.53,0.3,0.33,0.82,0.14,1.22c-3.19,6.7-6.44,13.37-10.61,19.55c-0.2,0.29-0.45,0.54-0.7,0.83
			C136.2,67.85,136.67,66.87,136.71,66.34z M112.05,73.53c2.48-1.07,4.92-2.24,7.36-3.41c3.71-1.78,7.37-1.31,10.89,0.41
			c3.22,1.58,3.25,3.76,0.19,5.73c-0.98,0.63-2.11,1.04-2.83,1.39c-6.03,1.5-11.05-0.56-15.97-2.92
			C110.56,74.19,111.24,73.88,112.05,73.53z M132.65,86.07c-6.41,1.69-11.72,0.5-16.61-2.56c-2.69-1.69-5.16-3.75-7.68-5.69
			c-0.48-0.37-1.61-0.6-1.14-1.41c0.36-0.62,1.32-0.11,1.94,0.1c2.23,0.78,4.47,1.55,6.62,2.52c5.95,2.67,11.74,2.35,17.24-1.02
			c1.44-0.88,1.68-0.58,2.11,0.72C136.68,83.41,135.92,85.27,132.65,86.07z M162.8,113.16c0.77,0.49,0.3,1.28,0.2,1.93
			c-1.44,9.79-6.92,16.02-16.55,18.6c-0.79,0.19-1.79,1.29-2.47,0.43c-0.62-0.79,0.38-1.71,0.88-2.44
			c4.63-6.76,10.77-12.14,16.44-17.97C161.69,113.32,162.18,112.77,162.8,113.16z M144.84,120.18c3.59-3.63,8.21-5.48,12.92-7.72
			c0.07-0.01,0.58-0.2,0.71-0.06c0.39,0.43,0.03,0.82-0.29,1.17c-1.27,1.4-2.48,2.84-3.8,4.19c-4.13,4.21-8.55,8.15-12,12.99
			c-0.32,0.45-0.95,1.13-1.27,1.05c-0.82-0.2-0.74-1.05-0.6-1.75C141.26,126.46,142.11,122.95,144.84,120.18z M188.59,89.16
			c0.22,0.47-0.21,0.87-0.61,1.14c-2.24,1.51-4.35,3.25-7.37,4.28c-7.23,0.84-14.64,0.45-21.56-3.39c-0.4-0.22-1.01-0.36-0.88-0.93
			c0.16-0.67,0.89-0.69,1.42-0.76c5.41-0.67,10.83-0.63,16.23-0.07c3.9,0.4,7.74,0.63,11.59-0.27
			C187.81,89.06,188.32,88.57,188.59,89.16z M184.69,85.51c0.4,0.14,0.72,0.52,1.07,0.78c-0.43,0.16-0.86,0.41-1.3,0.46
			c-6.94,0.73-13.86-0.63-20.8-0.34c-0.41,0.02-0.84-0.24-1.26-0.37c0.29-0.34,0.52-0.86,0.9-1c1.1-0.41,2.25-0.67,3.38-0.99
			C172.88,82.16,178.82,83.4,184.69,85.51z M217.46,52.64c-4.99,7.17-17.78,10.21-25.22,5.97c-0.48-0.27-1.25-0.46-1.04-1.19
			c0.09-0.33,0.64-0.63,1.04-0.77c1-0.35,2.04-0.6,3.07-0.89c7.33-0.59,14.4-2.46,21.48-4.32c0.32-0.08,0.88-0.18,0.97-0.04
			C218.04,51.83,217.74,52.25,217.46,52.64z M214.65,47.86c0.29,0.03,0.56,0.28,0.83,0.42c-0.26,0.19-0.49,0.47-0.78,0.56
			c-1.81,0.54-3.63,1.04-5.12,1.46c-5.62,2.46-11.56,1.36-16.96,3.3c-1.18,0.43-0.96-0.39-0.55-1.12c1.31-2.3,3.44-3.42,5.79-4.37
			C203.46,45.84,209.06,47.28,214.65,47.86z M200.47,30.75c0.34-3.45,2.47-5.79,4.97-7.85c3.96-3.25,9.16-4.34,13.19-7.48
			c0.16-0.13,0.57-0.22,0.62-0.16c0.34,0.49-0.12,0.78-0.38,1.09c-4.8,5.93-10.59,10.73-16.86,15.01c-0.29,0.2-0.59,0.38-0.82,0.53
			C200.05,32,200.41,31.28,200.47,30.75z M222.68,17.95c-0.26,6.38-4.49,15.69-11.7,17.11c-2.3,0.65-4.42,0.61-6.55,0.62
			c-0.83,0-1.91,0.21-2.25-0.6c-0.37-0.88,0.69-1.37,1.28-1.88c3.52-2.97,7.13-5.82,10.58-8.86c2.47-2.18,4.73-4.61,7.1-6.91
			c0.32-0.31,0.8-0.75,1.11-0.68C222.74,16.85,222.7,17.47,222.68,17.95z"/>
	</g>
	<path class="st8" d="M299.86,99.39c-0.45-0.92-1.41-0.78-2.21-0.52c-4.86,1.59-9.87,1.05-14.81,0.95
		c-10.04-0.2-17.85,3.93-23.95,11.65c-0.6,0.76-1.1,1.48-2.14,1.69c-9.09,1.86-17.8,2.08-25.6-4.31c-2.43-1.99-1.51-2.5,0.52-3.37
		c5.88-2.53,11.72-5.13,17.61-7.62c11.7-4.96,22.05-11.93,31.12-20.8c1.85-1.81,3.77-3.64,4.67-6.19c0.31-0.87,0.96-1.89,0.13-2.64
		c-0.69-0.62-1.57,0.06-2.3,0.42c-3.54,1.76-7.34,2.48-11.18,3.3c-8.57,1.83-16.56,4.76-18.36,10.6
		c-4.38,12.89-13.25,18.33-21.26,20.84c-0.9,0.28-1.74,0.55-1.58-0.84c0.75-6.58-0.38-13.59,4.87-19.12
		c3.46-3.64,6.07-7.83,6.7-13.04c0.99-8.21,0.6-16.31-1.44-24.32c-0.32-1.26-0.7-2.52-1.19-3.72c-0.29-0.71-0.47-1.9-1.46-1.75
		c-1.28,0.19-1.09,1.43-0.88,2.31c0.98,4.12-0.94,7.42-2.99,10.62c-2.17,3.38-4.52,6.66-6.88,9.9c-3.75,5.15-4.42,10.6-1.8,16.42
		c0.63,1.4,1.35,2.77,2.03,4.15c3.21,6.59,1.85,13.39-0.15,19.74c-1.25,3.96-6.46,3.77-9.88,5.47c-0.59,0.29-1.33,0.92-1.94,0.45
		c-0.71-0.55,0.06-1.26,0.22-1.89c0.88-3.42,1.96-6.77,2.39-10.34c0.65-5.47-1.45-10.83-0.32-16.27c0.09-0.43,0.04-1.02-0.53-1.17
		c-1.04-0.28-1.49,0.58-1.91,1.23c-2.52,3.86-5.39,7.48-7.8,11.44c-3.04,4.97-3.54,10.12-2.38,15.7c0.4,1.94,3.05,3.64,1.61,5.41
		c-1.22,1.51-3.68,2.01-5.59,2.95c-0.32,0.16-0.65,0.29-0.97,0.44c-3.19,1.56-3.83,1.39-5.44-1.8c-0.69-1.37-1.3-2.81-1.33-4.39
		c-0.06-3.67-0.02-7.32,1.5-10.78c2.8-6.4,5.76-12.71,9.68-18.55c1.64-2.44,3.31-4.98,3.83-7.96c1.24-7.09,2.38-14.2,3.51-21.32
		c0.11-0.66,0.2-1.58-0.51-1.95c-1.07-0.56-1.76,0.42-2.4,1.02c-9.81,9.13-18.28,19.13-22.35,32.3c-1.77,5.73-1.12,10.5,3.47,14.47
		c1.7,1.47,2.16,3.17,1.9,5.35c-0.64,5.25-0.52,10.45,2.38,15.14c0.97,1.57-0.33,1.83-1.12,2.36c-5.84,3.85-11.53,7.88-16.72,12.6
		c-0.57,0.52-1.32,1.86-2.29,0.87c-0.8-0.82,0.22-1.76,0.7-2.48c2.45-3.71,3.79-7.89,5.14-12.05c3.3-10.17,0.03-19.09-5.41-27.55
		c-0.32-0.5-0.76-1.4-1.64-0.96c-0.6,0.3-0.45,1.04-0.41,1.61c0.26,3.39-0.83,6.52-1.69,9.72c-0.8,3.01-2.09,5.79-3.26,8.63
		c-2.64,6.45-2.66,12.64,1.31,18.64c1.3,1.96,2.27,4.09,2.89,6.43c0.3,1.13,0.09,1.69-0.55,2.47c-2.56,3.11-5.09,6.24-7.55,9.42
		c-1.17,1.51-1.74,1.16-2.28-0.45c-1.22-3.65-3.27-6.82-5.71-9.77c-3.28-3.97-5.05-8.47-5.23-13.66c-0.16-4.61-0.55-9.21-0.92-13.81
		c-0.09-1.04-0.44-2.23-1.55-2.62c-1.26-0.45-1.89,0.74-2.59,1.46c-5.38,5.53-6.81,18.16-2.92,25.03c1.26,2.22,2.96,3.96,5.03,5.4
		c2.62,1.82,5.29,3.58,7.82,5.51c4.51,3.43,5.46,7.47,2.58,12.3c-4.31,7.22-6.45,15.17-8.35,23.22c-0.43,1.83-0.53,3.75-0.59,5.63
		c-0.02,0.83-0.2,2.27,1.02,2.25c0.9-0.02,0.68-1.33,0.7-2.13c0.13-6.26,2.12-12.09,4.23-17.88c0.53-1.46,1.28-2.98,3.05-3.15
		c9.49-0.88,15.35-7.9,22.29-13.09c0.73-0.55,1.71-1.23,1.45-2.27c-0.26-1.03-1.43-1.11-2.33-1.36c-5.15-1.39-9.83-0.21-14.24,2.57
		c-0.54,0.34-1.07,1.13-1.8,0.55c-0.12-0.1,0.32-1.05,0.63-1.52c2.44-3.79,5.17-7.35,8.34-10.58c1.36-1.38,2.29-1.59,3.58,0.29
		c2.23,3.25,5.12,5.91,8.72,7.65c1.94,0.94,3.1,2.32,3.69,4.41c2.18,7.67,7.33,11.66,15.03,13.89c9.53,2.76,18.79,3.39,28.31,0.77
		c0.77-0.21,1.85-0.15,2.04-1.12c0.19-0.97-0.75-1.43-1.49-1.75c-6.58-2.79-12.07-7.46-18.46-10.57c-3.56-1.74-7.14-3.09-11.2-2.96
		c-2.24,0.07-4.52-0.01-6.73-0.39c-6.55-1.13-12.55-3.43-17.02-8.68c-0.52-0.61-1.39-1.22-1.05-2.11c0.4-1.01,1.49-0.44,2.2-0.44
		c2.24,0.01,4.48,0.31,6.73,0.41c3.88,0.16,7.17-1.31,10.02-3.86c0.92-0.82,1.62-1.92,1.13-3.14c-0.42-1.07-1.61-0.72-2.53-0.77
		c-3.66-0.18-7.32-0.38-10.98-0.57c-0.56-0.03-1.35,0.26-1.56-0.43c-0.19-0.65,0.6-0.92,1.03-1.24c2.18-1.64,4.31-3.34,6.6-4.8
		c6.33-4.05,6.91-4.05,10.22,2.74c2.93,6,7.26,9.81,13.78,11.15c2.13,0.44,3.76,1.23,4.74,3.55c1.01,2.39,3.01,4.33,5.39,5.5
		c11.11,5.46,22.01,4.34,32.56-1.55c2.66-1.48,4.88-3.73,7.34-5.59c0.79-0.59,1.65-1.24,1.43-2.25c-0.23-1.07-1.39-1.19-2.32-1.3
		c-7.93-0.89-15.8-1.07-23.54,1.47c-5.78,1.9-11.66,1.73-17.53,0.31c-8.49-2.06-17.63-3.12-20.92-13.32
		c-0.65-2.01-3.84-3.44-2.52-5.52c1.05-1.66,3.76-2.26,5.75-3.31c0.41-0.22,0.93-0.25,1.34-0.48c1.84-1.02,2.85-0.34,4.01,1.31
		c2.5,3.56,4.92,7.14,9.07,9.28c6.5,3.36,13.2,1.68,19.87,1.43c0.83-0.03,1.7-0.36,1.83-1.37c0.13-0.98-0.58-1.54-1.33-1.89
		c-2.19-1.01-4.04-2.53-5.7-4.18c-3.27-3.25-7.15-4.93-11.66-5.45c-2.23-0.26-4.43-0.75-6.52-1.65c-1.12-0.49-1.34-0.88-0.12-1.5
		c3.27-1.68,6.63-3.16,10.14-4.28c0.87-0.28,1.4-0.11,2.13,0.59c6.48,6.21,14.15,8.54,23.11,7.51c6.19-0.72,12.49-1.19,18.7-0.88
		c8.95,0.44,16.58-1.86,22.94-8.26c1.24-1.25,2.84-2.13,4.25-3.21c0.75-0.58,1.5-1.18,2.12-1.88
		C299.7,101.03,300.27,100.23,299.86,99.39z"/>
	<g>
		<path class="st0" d="M241.03,40.72c1.96-1.97,1.53-4-0.62-4.74c-2.25-0.77-3.78,1.01-3.28,3.91c0.08,0.47,0.23,0.91,0.31,1.37
			c0.81,0.5,1.48,0.87,2.25,1.14C240.07,41.82,240.5,41.25,241.03,40.72z"/>
		<path class="st0" d="M226.04,83.27c1.1,1.74,3.49,2.18,4.71,1.21c1.36-1.08,1.93-5.1,0.89-6.3c-1.06-1.23-3.66-1.26-5.13,0.13
			c-0.65,0.61-1.29,1.04-2.06,1.21c-0.29,0.71-0.38,1.48-0.38,2.26C224.84,81.99,225.48,82.39,226.04,83.27z"/>
		<path class="st0" d="M206.32,54.48c0.77-1.37,1.22-3.15-0.82-4.21c-1.99-1.04-3.95-0.81-4.85,0.67c-1.15,1.88-0.78,3.49,1.17,4.54
			c0.64,0.35,0.98,0.8,1.15,1.31c0.94-0.29,1.82-0.6,2.65-0.85C205.83,55.45,206.05,54.97,206.32,54.48z"/>
		<path class="st0" d="M176.24,80.53c0.89-1.44,0.01-3.47-1.87-4.25c-1.73-0.72-3.15-0.1-4.14,1.52c-1.03,1.68-1.16,3.25,0.6,4.5
			c0.69,0.49,1.19,1.02,1.51,1.76c0.82-0.27,1.72-0.48,2.63-0.69C175.24,82.45,175.64,81.51,176.24,80.53z"/>
		<path class="st0" d="M202.31,110.53c0.88,0.94,2.48,1.27,3.81,0.6c1.06-0.53,1.22-3.81,0.39-5.03c-1.07-1.56-2.54-1.89-3.94-0.73
			c-0.49,0.41-0.98,0.67-1.49,0.86c-0.03,0.94-0.43,1.97-0.6,2.94C201.12,109.49,201.74,109.92,202.31,110.53z"/>
		<path class="st0" d="M183.2,140.73c2.16,0.13,3.72-1.53,3.77-3.75c0.04-1.8-0.68-3.23-2.62-3.53c-2.22-0.34-3.85,0.86-4.03,3.33
			c-0.03,0.39-0.1,0.72-0.2,1c0.6,0.97,1.05,2.02,1.51,3.01C182.14,140.73,182.65,140.69,183.2,140.73z"/>
		<path class="st0" d="M150.94,127.28c0.02-0.99,0.17-2.05,0.52-3.2c0.6-1.97-1.06-3.44-2.87-4.01c-1.48-0.47-2.85,0.11-3.55,1.7
			c-0.95,2.13-0.65,3.88,1.37,4.86c0.84,0.41,1.48,0.93,2.01,1.53C149.32,128.05,150.17,127.76,150.94,127.28z"/>
		<path class="st7" d="M250.33,70.36c0.13-0.93-0.54-1.21-1.13-1.64c-5.76-4.17-11.27-8.85-18.84-9.43
			c-0.4-0.03-0.99-0.04-0.76-0.74c0.45-1.35,5.91-3.67,7.17-2.83c2.86,1.91,6.16,2.51,9.34,3.45c0.54,0.16,1,0.36,1.42,0.63
			c0.34-0.96,1.19-1.84,1.93-2.7c-0.41,0.19-0.84,0.32-1.37,0.25c-2.78-0.41-5.46-1.22-8.13-2.06c-0.62-0.19-1.19-0.56-1.16-1.3
			c0.02-0.62,0.61-0.86,1.09-1.09c2.2-1.06,4.46-1.93,6.93-2.21c2.87-0.33,5.73-0.71,8.49-1.61c5-1.64,9.42-7.21,9.6-12.05
			c0.05-1.19,0.07-2.48-1.64-1.76c-4.33,1.81-9.03,2.61-13.18,4.91c-2.73,1.51-5.5,3.2-6.24,6.4c-0.68,2.98-2.86,3.91-5.15,4.89
			c-0.59,0.25-1.4,0.85-1.97,0.22c-0.48-0.53-0.29-1.38-0.04-2.08c0.87-2.47,1.52-5.01,2.99-7.21c-0.77-0.27-1.44-0.65-2.25-1.14
			c0.08,0.46,0.09,0.93-0.12,1.48c-1.04,2.69-1.85,5.46-2.77,8.2c-0.64,1.92-1.52,3.67-3.57,4.46c-0.88,0.34-1.74,1.62-2.56,0.89
			c-0.55-0.49,0.56-1.56,0.79-2.42c0.26-0.96,0.65-1.89,0.86-2.85c1.21-5.59,0.35-10.94-2-16.08c-0.33-0.71-0.72-1.68-1.65-1.56
			c-0.71,0.09-0.91,1.02-1.26,1.63c-1.02,1.8-1.86,3.75-3.1,5.38c-3.9,5.15-6.04,11.15-4.87,17.25c1.19,6.24-1.76,9.4-5.88,12.65
			c-2.54,2-2.78,2.06-4.27-0.78c-0.13-0.24-0.25-0.48-0.34-0.74c-1.55-4.25-2.83-8.47-1.06-12.84c-0.83,0.25-1.71,0.56-2.65,0.85
			c0.18,0.52,0.2,1.09,0.22,1.67c0.13,4.76,1.19,9.29,3.22,13.6c0.45,0.96,0.65,1.88-0.19,2.74c-3.15,3.23-6.31,6.45-9.46,9.67
			c-0.26,0.26-0.59,0.49-0.95,0.29c-0.1-0.05-0.05-0.5,0.03-0.73c2.13-5.38,1.37-10.83,0.4-16.27c-0.86-4.82-3.07-9.04-6.07-12.85
			c-1.39-1.77-2.43-1.68-3.1,0.13c-3.71,9.99-4.61,19.96-0.08,30.02c0.96,2.13,3.66,3.89,2.82,6.3c-0.76,2.18-2.77,3.95-4.36,5.8
			c-3.25,3.8-2.83,4.93-6.16-0.29c-2.63-4.13-5.85-8.36-4.33-13.51c-0.91,0.21-1.81,0.43-2.63,0.69c0.07,0.17,0.14,0.34,0.19,0.53
			c1.51,5.81,3.83,11.28,7.33,16.19c0.99,1.38,0.97,2.55,0.03,3.91c-2.32,3.33-4.58,6.7-6.86,10.06c-0.2,0.3-0.37,0.76-0.74,0.66
			c-0.58-0.16-0.23-0.74-0.32-1.13c-0.44-1.93-0.72-3.92-1.32-5.8c-1.72-5.31-4.36-10.1-8.46-13.98c-1.21-1.15-2.21-1.47-2.83,0.66
			c-2.17,7.39-2.11,14.59,1.48,21.58c1.45,2.81,2.98,5.58,4.8,8.17c0.64,0.91,1.22,1.78,0.7,2.98c-1.78,4.05-3.53,8.1-5.29,12.16
			c-0.52,1.19-1.25,1.58-2.15,0.45c-3.26-4.12-8.06-7.5-7.95-13.2c-0.77,0.47-1.62,0.77-2.53,0.88c0.68,0.77,1.18,1.66,1.64,2.61
			c2,4.1,4.66,7.75,7.78,11.02c1.35,1.41,1.44,2.62,0.88,4.33c-0.95,2.91-2.2,5.73-2.62,8.39c-0.29,1.19-0.44,1.99-0.69,2.76
			c-0.33,1.01-0.24,2.85-0.98,2.86c-1.06,0.02-1.33-1.65-1.83-2.64c-3.43-6.8-7.83-12.76-14.38-16.9c-1.8-1.14-2.36-0.96-2.39,0.88
			c-0.19,9.66,2.93,17.88,10.6,24.1c1.4,1.14,2.68,2.43,4.15,3.48c2.38,1.69,2.88,3.91,2.45,6.64c-0.38,2.4-0.71,4.83-0.51,7.27
			c0.06,0.67-0.01,1.69,0.91,1.71c0.93,0.02,0.91-1,0.99-1.67c0.34-2.59,0.63-5.19,0.91-7.78c0.18-1.73,1.08-2.88,2.77-3.25
			c6.17-1.35,11.17-5.02,16.24-8.43c3.64-2.45,7.27-5.09,9.32-9.24c0.41-0.82,0.99-1.72,0.45-2.52c-0.53-0.78-1.52-0.25-2.29-0.15
			c-9.12,1.16-17.75,3.43-24.12,10.76c-0.12,0.13-0.26,0.26-0.41,0.35c-0.38,0.21-0.57,0.88-1.04,0.67c-0.18-0.08-0.16-0.8-0.1-1.22
			c0.77-5.48,2.28-10.76,4.2-15.94c0.5-1.36,1.51-1.5,2.77-1.65c5.11-0.59,10.21-1.29,15.11-2.96c1.14-0.39,2.25-0.72,3.42-0.86
			c-0.47-0.99-0.91-2.04-1.51-3.01c-0.33,0.89-1.01,1.33-1.93,1.71c-4.57,1.85-9.4,2.47-14.26,2.98c-1.26,0.13-1.97-0.22-1.42-1.67
			c1.55-4.14,3.25-8.22,5.29-12.15c0.72-1.39,1.71-1.88,3.29-1.67c2.41,0.32,4.86,0.33,7.28,0.6c8.15,0.93,14.34-2.45,19.21-8.7
			c0.64-0.81,1.74-1.67,1.12-2.83c-0.57-1.07-1.88-0.86-2.94-0.97c-7.4-0.75-14.61-0.27-21.32,3.37c-0.45,0.25-1.03,0.69-1.5,0.34
			c-0.36-0.27-0.04-0.82,0.19-1.2c2.59-4.45,5.56-8.65,8.68-12.74c0.63-0.83,1.27-0.83,2.06-0.24c3.26,2.41,7.07,2.95,10.96,3.44
			c1.9,0.24,3.9,0.27,5.65,1.14c0.18-0.98,0.57-2,0.6-2.94c-1.14,0.42-2.34,0.37-3.6,0.2c-2.33-0.31-4.65-0.62-6.97-0.95
			c-1.83-0.26-3.45-1.02-4.96-2.06c-1.23-0.85-1.68-1.82-0.59-3.14c2.07-2.5,4.12-5.02,6.16-7.55c0.72-0.9,1.31-0.95,2.21-0.16
			c2.48,2.18,5.48,3.52,8.54,4.57c3.22,1.1,6.47,2.55,9.99,2.02c4.37-0.66,8.62-1.93,12.85-3.21c1.61-0.49,1.48-1.49,0.4-2.35
			c-1.05-0.83-2.28-1.45-3.45-2.11c-4.73-2.65-9.4-5.47-15.15-5.13c-2.43,0.15-4.86,0.3-7.29,0.44c-0.43,0.02-0.98,0.31-1.25-0.12
			c-0.38-0.59,0.23-0.95,0.55-1.35c2.38-2.96,5.12-5.59,7.74-8.32c1.23-1.28,2.29-1.43,3.69-0.29c3.76,3.08,8.2,4.47,12.98,4.88
			c0.41,0.04,0.79,0.09,1.15,0.19c0-0.78,0.09-1.55,0.38-2.26c-0.32,0.07-0.65,0.12-1.02,0.1c-4.34-0.22-8.32-1.38-11.85-4.05
			c-1.46-1.11-1.58-2.02-0.23-3.21c2.23-1.98,4.45-3.96,6.65-5.97c1.37-1.24,2.46-1.22,3.93,0.11c7.82,7.06,16.67,9.29,26.74,5.37
			C249.45,71.57,250.19,71.36,250.33,70.36z"/>
		<path class="st0" d="M247.54,59.81c0.57,0.37,1.02,0.89,1.37,1.64c0.84,1.82,2.5,2.16,4.28,1.16c1.66-0.93,2.45-3.5,1.59-5.21
			c-0.93-1.85-2.43-1.57-3.94-0.99c-0.48,0.18-0.91,0.49-1.38,0.71C248.73,57.98,247.88,58.85,247.54,59.81z"/>
	</g>
	<path class="st8" d="M0.14,97.67c0.45-0.92,1.41-0.78,2.21-0.52c4.86,1.59,9.87,1.05,14.81,0.95c10.04-0.2,17.85,3.93,23.95,11.65
		c0.6,0.76,1.1,1.48,2.14,1.69c9.09,1.86,17.8,2.08,25.6-4.31c2.43-1.99,1.51-2.5-0.52-3.37c-5.88-2.52-11.72-5.13-17.61-7.62
		c-11.7-4.96-22.05-11.93-31.12-20.8c-1.85-1.81-3.77-3.64-4.67-6.19c-0.31-0.87-0.96-1.89-0.13-2.64c0.69-0.62,1.57,0.06,2.3,0.42
		c3.54,1.76,7.34,2.48,11.18,3.3c8.57,1.83,16.56,4.76,18.36,10.6C51,93.72,59.87,99.16,67.87,101.67c0.9,0.28,1.74,0.55,1.58-0.84
		c-0.75-6.58,0.38-13.59-4.87-19.12c-3.46-3.64-6.07-7.83-6.7-13.04c-0.99-8.21-0.6-16.31,1.44-24.32c0.32-1.26,0.7-2.52,1.19-3.72
		c0.29-0.71,0.47-1.9,1.46-1.75c1.28,0.19,1.09,1.43,0.88,2.31c-0.98,4.12,0.94,7.42,2.99,10.62c2.17,3.38,4.52,6.66,6.88,9.9
		c3.75,5.15,4.42,10.6,1.8,16.42c-0.63,1.4-1.35,2.77-2.03,4.15c-3.21,6.59-1.85,13.39,0.15,19.74c1.25,3.96,6.46,3.77,9.88,5.47
		c0.59,0.29,1.33,0.92,1.94,0.45c0.71-0.55-0.06-1.26-0.22-1.89c-0.88-3.42-1.96-6.77-2.39-10.34c-0.65-5.47,1.45-10.83,0.32-16.27
		c-0.09-0.43-0.04-1.02,0.53-1.17c1.04-0.28,1.49,0.58,1.91,1.23c2.52,3.86,5.39,7.48,7.8,11.44c3.04,4.97,3.54,10.12,2.38,15.7
		c-0.4,1.94-3.05,3.64-1.61,5.41c1.22,1.51,3.68,2.01,5.59,2.95c0.32,0.16,0.65,0.29,0.97,0.44c3.19,1.56,3.83,1.39,5.44-1.8
		c0.69-1.37,1.3-2.81,1.33-4.39c0.06-3.67,0.02-7.32-1.5-10.78c-2.8-6.4-5.76-12.71-9.68-18.55c-1.64-2.44-3.31-4.98-3.83-7.96
		c-1.24-7.09-2.38-14.2-3.51-21.32c-0.11-0.66-0.2-1.58,0.51-1.95c1.07-0.56,1.76,0.42,2.4,1.02c9.81,9.13,18.28,19.13,22.35,32.3
		c1.77,5.73,1.12,10.5-3.47,14.47c-1.7,1.47-2.16,3.17-1.9,5.35c0.64,5.25,0.52,10.45-2.38,15.14c-0.97,1.57,0.33,1.83,1.12,2.36
		c5.84,3.85,11.53,7.88,16.72,12.6c0.57,0.52,1.32,1.86,2.29,0.87c0.8-0.82-0.22-1.76-0.7-2.48c-2.45-3.71-3.79-7.89-5.14-12.05
		c-3.3-10.17-0.03-19.09,5.41-27.55c0.32-0.5,0.76-1.4,1.64-0.96c0.6,0.3,0.45,1.04,0.41,1.61c-0.26,3.39,0.83,6.52,1.69,9.72
		c0.8,3.01,2.09,5.79,3.26,8.63c2.64,6.45,2.66,12.64-1.31,18.64c-1.3,1.96-2.27,4.09-2.89,6.43c-0.3,1.13-0.09,1.69,0.55,2.47
		c2.56,3.11,5.09,6.24,7.55,9.42c1.17,1.51,1.74,1.16,2.28-0.45c1.22-3.65,3.27-6.82,5.71-9.77c3.28-3.97,5.05-8.47,5.23-13.66
		c0.16-4.61,0.55-9.21,0.92-13.81c0.09-1.04,0.44-2.23,1.55-2.62c1.26-0.45,1.89,0.74,2.59,1.46c5.38,5.53,6.81,18.16,2.92,25.03
		c-1.26,2.22-2.96,3.96-5.03,5.4c-2.62,1.82-5.29,3.58-7.82,5.51c-4.51,3.43-5.46,7.47-2.58,12.3c4.31,7.22,6.45,15.17,8.35,23.22
		c0.43,1.83,0.53,3.75,0.59,5.63c0.02,0.83,0.2,2.27-1.02,2.25c-0.9-0.02-0.68-1.33-0.7-2.13c-0.13-6.26-2.12-12.09-4.23-17.88
		c-0.53-1.46-1.28-2.98-3.05-3.15c-9.49-0.88-15.35-7.9-22.29-13.09c-0.73-0.55-1.71-1.23-1.45-2.27c0.26-1.03,1.43-1.11,2.33-1.36
		c5.15-1.39,9.83-0.21,14.24,2.57c0.54,0.34,1.07,1.13,1.8,0.55c0.12-0.1-0.32-1.05-0.63-1.52c-2.44-3.79-5.17-7.35-8.34-10.58
		c-1.36-1.38-2.29-1.59-3.58,0.29c-2.23,3.25-5.12,5.91-8.71,7.65c-1.94,0.94-3.1,2.32-3.69,4.41c-2.18,7.67-7.33,11.66-15.03,13.89
		c-9.53,2.76-18.79,3.39-28.31,0.77c-0.77-0.21-1.85-0.15-2.04-1.12c-0.19-0.97,0.75-1.43,1.49-1.75
		c6.58-2.79,12.07-7.45,18.46-10.57c3.56-1.74,7.14-3.09,11.2-2.96c2.24,0.07,4.52-0.01,6.73-0.39c6.55-1.13,12.55-3.43,17.02-8.68
		c0.52-0.61,1.39-1.22,1.05-2.11c-0.4-1.01-1.49-0.44-2.2-0.44c-2.24,0.01-4.48,0.31-6.73,0.41c-3.88,0.16-7.17-1.31-10.02-3.86
		c-0.92-0.82-1.62-1.92-1.13-3.14c0.42-1.07,1.61-0.72,2.53-0.77c3.66-0.18,7.32-0.38,10.98-0.57c0.56-0.03,1.35,0.26,1.56-0.43
		c0.19-0.65-0.6-0.92-1.03-1.24c-2.18-1.64-4.31-3.34-6.6-4.8c-6.33-4.05-6.91-4.05-10.22,2.74c-2.93,6-7.26,9.81-13.78,11.15
		c-2.13,0.44-3.76,1.23-4.74,3.55c-1.01,2.39-3.01,4.33-5.39,5.5c-11.11,5.46-22.01,4.34-32.56-1.55c-2.66-1.48-4.88-3.73-7.34-5.59
		c-0.79-0.59-1.65-1.24-1.43-2.25c0.23-1.07,1.39-1.19,2.32-1.3c7.93-0.89,15.8-1.07,23.54,1.47c5.78,1.9,11.66,1.73,17.53,0.31
		c8.49-2.06,17.63-3.12,20.92-13.32c0.65-2.01,3.84-3.44,2.52-5.52c-1.05-1.66-3.76-2.27-5.75-3.31c-0.41-0.22-0.93-0.25-1.34-0.48
		c-1.84-1.02-2.85-0.34-4.01,1.31c-2.5,3.56-4.92,7.14-9.07,9.28c-6.5,3.36-13.2,1.68-19.87,1.43c-0.83-0.03-1.7-0.36-1.83-1.37
		c-0.13-0.98,0.58-1.54,1.33-1.89c2.19-1.01,4.04-2.53,5.7-4.18c3.27-3.25,7.15-4.93,11.66-5.45c2.23-0.26,4.43-0.75,6.52-1.65
		c1.12-0.49,1.34-0.88,0.12-1.5c-3.27-1.68-6.63-3.16-10.14-4.28c-0.87-0.28-1.4-0.11-2.13,0.59c-6.48,6.21-14.15,8.54-23.11,7.51
		c-6.19-0.72-12.49-1.19-18.7-0.88c-8.95,0.44-16.58-1.86-22.94-8.26c-1.24-1.25-2.84-2.13-4.25-3.21c-0.75-0.58-1.5-1.18-2.12-1.88
		C0.3,99.31-0.27,98.51,0.14,97.67z"/>
	<g>
		<path class="st6" d="M117.75,94.04c0.62-6.81-3.11-11.99-9.73-13.65c-3.89-0.97-7.71-0.8-11.29,1.07
			c-1.15,0.6-1.41,0.42-1.75-0.68c-0.79-2.61-2.22-4.85-4.1-6.81c-2.36-2.46-5.09-4.4-8.2-5.82c-11.55-5.28-22.67-11.33-33-18.75
			c-2.13-1.53-3.24-1.22-4.25,1.27c-0.94,2.31-1.39,4.76-1.5,7.25c-0.66,14.24,2.83,27.24,11.16,38.96
			c3.45,4.86,7.18,9.66,12.63,11.84c4.92,1.97,6.37,4.95,7.26,9.76c1.61,8.77,8.15,13.49,17.16,13.12c2.16-0.09,3.18,0.61,4.08,2.35
			c2.43,4.68,6.25,7.09,11.63,7.49c4.39,0.33,7.72-1.58,10.81-4.09c2.06-1.67,3.28-1.1,4.54,0.75c2.13,3.12,3.85,6.47,5.3,9.95
			c0.88,2.1,1.63,4.26,2.54,6.34c0.29,0.66,0.8,1.55,1.8,0.98c0.71-0.41,1.19-1.08,0.87-2c-0.2-0.56-0.42-1.11-0.7-1.64
			c-2.32-4.38-4.11-9.03-6.78-13.22c-1.81-2.84-2.08-5.35,0.58-7.91c1.26-1.21,2.07-2.89,3.07-4.36c3.9-5.71,4.22-12.01,1.91-18.16
			c-2.12-5.62-5.83-10.24-12.45-11.09C117.17,96.72,117.63,95.43,117.75,94.04z"/>
		<path class="st2" d="M129.74,112.56c-1.35,2.48-1.97,4.9-4.05,6.99c-1.8,1.8-4.25,2.58-6.72,2.85c-2.03-2.76-4.4-5.31-6.4-7.49
			c-1.06-1.15-2.16-2.25-3.3-3.31c5.1-1.79,9.36-8.22,6.22-13.23c-0.27-0.44-0.95-0.3-0.98,0.24c-0.13,2.56,0.15,4.79-0.96,7.22
			c-1.07,2.34-3.16,3.75-5.41,4.75c-3.68-3.31-7.65-6.26-11.61-9.24c2.07-0.79,3.6-2.87,4.45-4.91c1.38-3.3,0.43-7.47-1.69-10.2
			c-0.22-0.28-0.66,0.01-0.58,0.32c0.56,2.4,1.25,4.69,1.18,7.18c-0.08,3.18-2,5.24-4.4,6.81c-0.14-0.11-0.28-0.21-0.42-0.32
			c-4.24-3.23-8.56-6.36-12.85-9.52c4.69-4.77,5.09-14.74-0.82-18.69c-0.39-0.26-0.82,0.22-0.63,0.6c1.48,2.94,3.01,5.51,3.21,8.89
			c0.18,3.15-1.15,5.89-2.71,8.49c-2.21-1.62-4.41-3.25-6.59-4.9c-2.8-2.12-5.43-4.35-7.98-6.64c0.03-0.02,0.06-0.03,0.08-0.06
			c2.57-3.77,1.16-10.27-2.79-12.58c-0.27-0.16-0.65,0.16-0.47,0.45c1.16,1.81,2.24,3.56,2.79,5.66c0.53,2.01,0.19,4.09-0.1,6.11
			c-4.55-4.13-8.84-8.48-13.28-12.89c-0.35-0.35-1.03,0.09-0.74,0.53c3.6,5.48,8.34,10.27,13.54,14.65
			c-2.33-0.01-4.57,0.35-6.92-0.1c-3.21-0.62-5.65-2.76-8.09-4.76c-0.37-0.3-0.91,0.04-0.69,0.5c2.41,5.2,11.37,8.77,16.22,4.8
			c4.54,3.78,9.41,7.27,14.15,10.65c-2.44,0.69-4.53,1.57-7.31,1.45c-3.62-0.16-6.92-1.87-10.43-2.54c-0.5-0.1-0.78,0.52-0.35,0.82
			c3.13,2.2,6.94,3.48,10.74,3.83c2.74,0.25,6.79-0.3,8.59-2.69c2.04,1.45,4.05,2.89,6,4.32c2.93,2.16,5.71,4.41,8.39,6.74
			c-3.85,1.06-7.25,2.58-11.43,2.78c-4.93,0.23-9.35-1.32-13.98-2.71c-0.45-0.14-0.9,0.5-0.5,0.83c6.46,5.39,20.57,6.25,27.11,0.16
			c3.5,3.11,6.85,6.36,10.17,9.8c0.51,0.53,1.01,1.08,1.5,1.62c-3.58,0.51-7.14,0.84-10.77,0.61c-4.76-0.3-9.18-1.87-13.72-3.16
			c-0.41-0.12-0.59,0.41-0.28,0.64c6.93,5.18,17.67,5.99,25.8,3.04c2.21,2.51,4.28,5.15,6.21,7.87c0.21,0.29,0.4,0.59,0.59,0.88
			c-4.5,0.87-8.55,2.14-13.33,1.8c-6-0.42-10.6-3.49-15.82-6.06c-0.5-0.24-1.25,0.27-0.87,0.83c5.72,8.41,22.64,11.19,30.92,4.85
			c1.34,2.2,2.58,4.44,4.47,6.25c0.67,0.64,1.57,0.03,1.48-0.81c-0.32-3.02-1.77-6-3.66-8.79c5.66-0.54,11.8-5.07,10.71-11.07
			C130.57,112.28,129.94,112.19,129.74,112.56z"/>
	</g>
	<g>
		<path class="st5" d="M75.72,134.95c0.26-0.26,0.65-0.48,0.77-0.8c0.48-1.3,0.88-2.62,1.31-3.94c1.76-5.47,1.68-10.92-0.05-16.36
			c-0.29-0.91-0.69-2.04-1.91-1.97c-1.02,0.06-1.3,1.08-1.65,1.9c-3,6.9-1.08,13.6,0.81,20.3
			C75.09,134.41,75.47,134.66,75.72,134.95z"/>
		<path class="st5" d="M77.49,146.39c-0.49,0.04-0.48,0.52-0.55,0.9c-0.54,3.12-1.06,6.25-1.62,9.37c-0.23,1.31-0.04,2.55,0.39,3.8
			c0.61,1.77,1.37,3.5,3.55,3.42c1.98-0.07,2.24-1.96,2.75-3.17c0.37-1.19,0.69-2.17,0.48-3.16c-0.79-3.84-2.77-7.2-4.36-10.72
			C78.04,146.62,77.69,146.37,77.49,146.39z"/>
		<path class="st5" d="M82.73,139.16c-1.03,0.15-2.21-0.08-2.6,1.4c-0.39,1.48-0.82,2.86,0.6,4.09c1.05,0.9,1.93,2,2.98,2.91
			c4.36,3.77,11.97,5.09,15.64,2.01c1.82-1.53,1.88-2.71,0.7-4.5c-2.03-3.09-5.21-4.1-7.8-4.73
			C88.65,139.34,85.75,138.73,82.73,139.16z"/>
		<path class="st5" d="M73.35,144.71c-0.9-0.73-1.86-0.46-2.75,0.13c-3.21,2.16-6.27,4.5-8.8,7.48c-0.98,1.15-1.71,2.44-2.14,3.87
			c-0.62,2.11,0.13,2.98,2.31,2.9c2.45-0.09,4.3-1.35,5.91-3.06c2.5-2.64,4-5.87,5.42-9.11C73.36,146.15,74.18,145.38,73.35,144.71z
			"/>
		<path class="st5" d="M70.84,140.61c-0.13-1.72-1.62-1.42-2.83-2.02c-4.69-0.71-9.42-0.01-13.99,1.87c-1.26,0.52-2.22,1.52-2,2.97
			c0.2,1.31,1.5,1.5,2.55,1.65c4.89,0.72,9.67,0.4,14.12-2C69.71,142.54,70.96,142.2,70.84,140.61z"/>
		<path class="st5" d="M72.12,136.2c0.48-0.77-0.24-1.29-0.65-1.78c-4.15-5.13-9.03-9.41-14.94-12.42
			c-1.99-1.01-4.45-1.91-5.97,0.12c-1.55,2.07,0.16,4.14,1.64,5.75c3.71,4.05,8.48,6.4,13.81,8.25c1.34,0.15,2.91,0.33,4.48,0.51
			C71.1,136.69,71.77,136.76,72.12,136.2z"/>
		<path class="st2" d="M118.04,145.86c-1.64,1.48-3.54,2.95-3.99,5.31c-0.81,2.7,0.08,3.86,2.81,3.68c1.83-0.12,3.5-0.81,4.92-1.93
			c3.76-2.99,6.83-6.59,9.24-10.76c0.64-1.1,0.62-1.41-0.83-1.53C125.17,140.23,121.45,142.79,118.04,145.86z"/>
		<path class="st2" d="M116.97,123.89c1.58,4.76,3.66,9.2,8.1,12.04c0.58,0.37,1.22,0.65,1.85,0.92c0.4,0.17,0.76,0.11,0.86-0.42
			c-0.04-0.19-0.05-0.4-0.12-0.58c-2.12-4.94-4.33-9.81-8.95-13.02c-0.45-0.31-0.86-1.01-1.51-0.57
			C116.61,122.64,116.78,123.34,116.97,123.89z"/>
		<path class="st5" d="M95.82,128.48c0.66-2.09-0.33-3.74-1.59-5.16c-1.13-1.27-2.43-0.15-3.53,0.29
			c-5.31,2.13-8.86,6.12-11.43,11.1c-0.26,0.5-0.63,1.07-0.1,1.62c0.44,0.45,1.02,0.71,1.62,0.43c3.67-1.73,7.85-2.06,11.36-4.24
			C93.78,131.49,95.25,130.41,95.82,128.48z"/>
		<path class="st6" d="M115.82,120.59c-1.23,0.98-1.28,2.84-0.57,4.43c1.54,3.44,3.03,6.9,5.41,9.89c0.33,0.42,1.15,0.72,0.69,1.4
			c-0.14,0.2-0.9,0.07-1.35-0.04c-8.07-1.96-16.27-2.23-24.51-1.97c-0.56,0.02-1.41,0.07-1.88,0c-0.78,0.61-1.39,1.4-1.81,2.28
			c10.32-1,20.58-0.67,30.73,1.75c0.45,0.11,1.12,0.29,1.25,0.6c0.28,0.73-0.53,0.94-0.97,1.26c-2.64,1.93-5.33,3.8-7.6,6.2
			c-1.46,1.55-2.62,3.24-3.12,5.32c-0.65,2.68,0.07,3.88,2.64,4.72c3.78,1.23,6.78-0.37,9.57-2.62c3.67-2.96,6.41-6.77,9.03-10.61
			c1.08-1.59,2.07-1.69,3.68-1.22c6.29,1.83,12.42,4.06,18.33,6.9c0.97,0.47,2.49,1.54,3.1,0.22c0.55-1.18-1.24-1.51-2.15-1.9
			c-7.21-3.07-14.54-5.89-22.15-7.77c-2.51-0.62-3.64-1.9-4.49-4.08c-2.1-5.33-5.04-10.13-9.54-13.81
			C118.84,120.51,117.18,119.51,115.82,120.59z M131.01,142.16c-2.41,4.17-5.48,7.77-9.24,10.76c-1.41,1.12-3.09,1.81-4.92,1.93
			c-2.73,0.18-3.62-0.98-2.81-3.68c0.45-2.36,2.35-3.83,3.99-5.31c3.41-3.07,7.14-5.64,12.15-5.23
			C131.63,140.75,131.65,141.06,131.01,142.16z M118.69,122.83c4.63,3.21,6.84,8.08,8.95,13.02c0.08,0.18,0.08,0.38,0.12,0.58
			c-0.09,0.53-0.46,0.59-0.86,0.42c-0.63-0.27-1.27-0.55-1.85-0.92c-4.44-2.84-6.52-7.28-8.1-12.04c-0.18-0.54-0.35-1.25,0.22-1.64
			C117.83,121.81,118.24,122.51,118.69,122.83z"/>
		<path class="st2" d="M93.26,134.16c-0.29-0.9,0.89-1,1.39-1.52c0.83-0.87,1.57-1.8,2.12-2.85c1.23-2.33,0.71-5.41-1.26-7.42
			c-1.95-1.99-4.06-1.51-6.26-0.37c-2.76,1.43-5.13,3.37-7.46,5.39c-0.35,0.31-0.77,0.84-1.26,0.58c-0.52-0.27-0.17-0.88-0.11-1.33
			c0.5-3.56,0.47-7.13-0.15-10.67c-0.2-1.16-0.53-2.33-1.01-3.4c-0.76-1.69-2.27-2.47-4.05-2.61c-1.82-0.15-2.22,1.47-2.81,2.64
			c-1.69,3.37-2.12,7.01-1.78,10.73c0.18,1.97,0.56,3.93,0.83,5.89c0.07,0.56,0.42,1.29-0.15,1.65c-0.66,0.42-1-0.37-1.4-0.73
			c-1.03-0.93-1.98-1.95-3.05-2.83c-3.61-2.96-7.39-5.65-10.82-7.02c-5.63-1.64-7.95-0.33-7.94,3.59c0.01,1.64,1.06,2.75,1.97,3.9
			c2.64,3.33,6.1,5.63,9.83,7.56c0.5,0.26,1.41,0.67,1.38,0.87c-0.17,0.89-1.08,0.65-1.72,0.75c-2.27,0.34-4.47,0.81-6.58,1.78
			c-2.37,1.09-3.01,3.16-2.92,5.39c0.09,2.27,2.28,2.2,3.83,2.55c2.53,0.58,5.13,0.33,7.7,0.25c0.75-0.02,1.74-0.51,2.13,0.38
			c0.14,0.31-0.67,1.11-1.14,1.6c-2.17,2.22-4.21,4.5-4.84,7.69c-0.58,2.93,1.01,4.63,3.99,4.17c1.92-0.3,3.49-1.36,4.96-2.56
			c2.49-2.03,4.31-4.64,6.27-7.14c0.4-0.52,0.67-1.66,1.28-1.39c0.84,0.36,0.31,1.41,0.21,2.16c-0.27,1.96-0.68,3.91-0.84,5.88
			c-0.23,2.76,0.86,5.09,2.94,6.84c2.63,2.23,5.13,1.49,6.65-1.59c1.9-3.87,0.93-7.52-0.4-11.23c-0.2-0.57-0.75-1.38-0.04-1.83
			c0.48-0.31,1.08,0.3,1.58,0.61c4.42,2.74,9.02,3.45,13.88,1.26c4.76-2.14,5.38-5.33,1.74-8.98c-2.71-2.71-6.28-3.66-9.78-4.77
			c-0.5-0.16-1.44-0.01-1.38-0.7c0.05-0.56,0.96-0.52,1.53-0.58c0.49-0.05,0.98-0.09,1.48-0.14c0.42-0.88,1.03-1.67,1.81-2.28
			C93.42,134.28,93.28,134.24,93.26,134.16z M74.18,113.78c0.36-0.82,0.63-1.84,1.65-1.9c1.22-0.07,1.62,1.06,1.91,1.97
			c1.73,5.44,1.81,10.89,0.05,16.36c-0.43,1.32-0.83,2.64-1.31,3.94c-0.12,0.32-0.51,0.53-0.77,0.8c-0.25-0.29-0.63-0.53-0.73-0.86
			C73.1,127.38,71.18,120.68,74.18,113.78z M52.21,127.86c-1.48-1.61-3.19-3.68-1.64-5.75c1.52-2.03,3.97-1.13,5.97-0.12
			c5.91,3.01,10.79,7.29,14.94,12.42c0.4,0.5,1.13,1.01,0.65,1.78c-0.35,0.56-1.03,0.49-1.63,0.42c-1.57-0.18-3.14-0.36-4.48-0.51
			C60.68,134.26,55.92,131.91,52.21,127.86z M54.58,145.08c-1.05-0.15-2.35-0.35-2.55-1.65c-0.22-1.46,0.74-2.46,2-2.97
			c4.57-1.88,9.3-2.58,13.99-1.87c1.21,0.6,2.69,0.3,2.83,2.02c0.12,1.59-1.13,1.94-2.14,2.48
			C64.24,145.49,59.47,145.8,54.58,145.08z M67.88,156.03c-1.61,1.7-3.45,2.96-5.91,3.06c-2.18,0.08-2.93-0.79-2.31-2.9
			c0.42-1.43,1.16-2.72,2.14-3.87c2.52-2.98,5.58-5.32,8.8-7.48c0.89-0.6,1.85-0.87,2.75-0.13c0.83,0.68,0.02,1.45-0.04,2.21
			C71.88,150.16,70.38,153.39,67.88,156.03z M82.49,157.55c0.21,0.99-0.12,1.97-0.48,3.16c-0.51,1.2-0.77,3.09-2.75,3.17
			c-2.18,0.08-2.94-1.65-3.55-3.42c-0.43-1.25-0.62-2.49-0.39-3.8c0.55-3.12,1.08-6.25,1.62-9.37c0.06-0.38,0.06-0.85,0.55-0.9
			c0.21-0.02,0.55,0.23,0.65,0.44C79.73,150.34,81.7,153.71,82.49,157.55z M100.05,145.07c1.18,1.79,1.12,2.97-0.7,4.5
			c-3.67,3.08-11.28,1.76-15.64-2.01c-1.05-0.91-1.93-2-2.98-2.91c-1.42-1.23-0.99-2.61-0.6-4.09c0.39-1.48,1.57-1.25,2.6-1.4
			c3.01-0.43,5.92,0.18,9.52,1.18C94.84,140.97,98.02,141.98,100.05,145.07z M80.78,136.75c-0.6,0.28-1.18,0.02-1.62-0.43
			c-0.54-0.55-0.16-1.12,0.1-1.62c2.57-4.97,6.12-8.97,11.43-11.1c1.1-0.44,2.4-1.56,3.53-0.29c1.26,1.42,2.25,3.07,1.59,5.16
			c-0.57,1.93-2.04,3.02-3.68,4.04C88.63,134.69,84.45,135.02,80.78,136.75z"/>
	</g>
	<g>
		<path class="st8" d="M186.41,98.83c0.47-3.23,0.93-6.47,1.33-9.71c0.11-0.93,0.59-1.82,0.31-2.79c-1.1,0.43-1.62,1.44-2.12,2.35
			c-2.41,4.43-5.9,7.8-10.01,10.59c-1.34,0.91-1.81,2.14-1.75,3.44c-0.08,2.74,0.91,3.8,3.4,3.57c2.07-0.19,3.55,0.39,4.56,2.28
			c0.99,1.83,3.3,2.25,4.99,1.04c0.8-0.57,1.11-1.13,0.57-2.22C186.34,104.69,185.97,101.81,186.41,98.83z"/>
		<path class="st8" d="M186.83,84.56c0.57-0.81,0.11-0.87-0.57-0.84c-2.22,0.1-3.52,1.22-4.06,3.48c-0.25,1.06-0.73,1.94-2.01,1.94
			c-0.53,0-1.16,0.12-1.31-0.64c-0.2-1.07-0.07-1.98,0.97-2.66c1.75-1.15,3.23-2.74,5.36-3.29c0.23-0.06,0.6,0,0.59-0.37
			c0-0.31-0.31-0.41-0.56-0.51c-2.38-1-4.82-1.38-7.39-0.92c-1.32,0.24-2.38,0.39-1.86,2.24c0.2,0.7,0.12,1.89-1.15,2.03
			c-0.82,0.09-1.77,0.18-2.13-0.76c-0.34-0.89-0.43-1.89,0.49-2.61c1.13-0.89,2.3-1.65,3.77-1.96c3.04-0.64,5.96-0.13,8.87,0.72
			c0.39,0.11,0.93,0.63,1.27,0.04c0.28-0.49-0.18-0.91-0.53-1.21c-3.92-3.38-7.97-6.49-13.15-6.38c-6.25-0.47-9.64,4.31-9.36,9.42
			c0.09,1.64,0.74,2.8,2.28,3.55c2.29,1.11,2.56,1.86,1.87,4.42c-0.34,1.25-0.67,2.49-0.65,3.81c0.04,2.69,1.8,4.49,4.5,4.45
			c1.6-0.03,3.02-0.57,4.38-1.47C181.16,93.92,183.7,89,186.83,84.56z"/>
		<path class="st8" d="M173.31,71.56c4.36,0.45,7.89,2.44,11.37,4.77c0.68,0.46,1.23,1.28,2.23,1.14c-0.2-0.94-1.05-1.35-1.61-1.99
			c-2.76-3.1-6-5.81-7.76-9.71c-0.44-0.98-0.74-2.13,0.46-2.68c0.95-0.44,2.2-0.61,3.04,0.35c0.88,1,0.69,2.04-0.4,2.8
			c-0.72,0.5-0.86,1.06-0.32,1.7c2.11,2.51,4.2,5.03,6.67,7.21c0.17,0.15,0.36,0.48,0.63,0.21c0.09-0.09,0.01-0.38-0.04-0.57
			c-0.11-0.39-0.26-0.78-0.4-1.16c-2.11-5.78-2.36-11.58-0.13-17.38c0.28-0.72,0.14-1.07-0.35-1.57c-2.51-2.57-6.97-2.01-8.65,1.37
			c-1.03,2.07-2.41,3.01-4.59,3.49c-3.47,0.77-4.58,2.28-4.61,5.47C168.27,68.63,170.89,71.31,173.31,71.56z"/>
		<path class="st8" d="M186.58,63.99c0.05,4.08,0.48,7.65,2.3,10.91c0.39,0.7,0.62,1.5,1.77,1.33c0.99-0.15,1.12-0.79,1.33-1.54
			c0.63-2.27,1.73-4.29,3.24-6.11c0.78-0.94,1.52-1.87,1.8-3.15c0.31-1.43,1.32-1.55,2.53-0.96c0.86,0.42,1.13,1.11,1.04,2.02
			c-0.11,1.09-0.7,1.75-1.75,2.01c-0.78,0.19-1.61,0.15-2.27,0.79c-1.84,1.78-2.82,3.99-3.38,6.43c-0.18,0.81,0.32,1.25,0.83,1.73
			c0.57,0.53,1.01,0.1,1.46-0.14c1.75-0.94,3.31-2.16,4.91-3.33c1.02-0.74,1.86-1.54,1.99-2.92c0.13-1.3,0.97-1.86,2.28-1.77
			c0.71,0.05,1.4,0.06,1.48,1.01c0.11,1.25-0.06,2.4-1.44,2.83c-2.7,0.84-4.44,3.09-6.76,4.48c-0.42,0.25-1.01,0.47-1.01,1.15
			c0.47-0.01,0.95,0.05,1.41-0.03c2.49-0.43,4.96-0.99,7.45-1.34c4.82-0.68,7.98-3.6,10.43-7.5c1.35-2.14,0.96-4.73-1.26-5.86
			c-2.95-1.5-3.86-4-4.47-6.89c-1.2-5.66-2.83-6.47-7.85-3.68c-2.39,1.32-4.75,1.55-7.29,0.82c-0.72-0.21-1.45-0.39-2.16-0.63
			c-1.09-0.37-2.2-0.13-2.84,0.64c-1.41,1.69-3.1,3.26-3.43,5.66C186.74,61.44,186.44,62.91,186.58,63.99z"/>
		<path class="st8" d="M219.35,82.66c0.7-1.04,1.22-2.12,1.39-3.37c0.25-1.84-0.88-3.93-2.67-4.92c-1.59-0.88-2.97-0.66-4.57,0.85
			c-1.48,1.39-3.2,2.29-5.12,2.89c-3.01,0.94-6.14,1.24-9.19,1.98c-0.32,0.08-0.92,0.21-0.91,0.27c0.05,0.59,0.58,0.41,0.94,0.46
			c3.98,0.57,7.96,1.13,11.94,1.68c1.17,0.16,1.88,0.78,1.95,1.98c0.05,0.93-0.34,1.65-1.32,1.76c-1.06,0.12-2.36,0.4-2.73-1.05
			c-0.37-1.44-1.43-1.7-2.6-1.85c-2.91-0.36-5.82-0.67-8.73-1.02c-0.4-0.05-1.08-0.24-1.12,0.01c-0.09,0.56,0.56,0.67,0.98,0.85
			c3.64,1.57,7.11,3.47,10.5,5.51c1.78,1.07,3.46,2.37,4.15,4.38c0.5,1.48,1.38,1.8,2.72,1.71c2.08,0,3.83-0.68,4.99-2.57
			c1.15-1.87,0.66-3.45-0.67-5.01C218.02,85.71,218.37,84.13,219.35,82.66z"/>
		<path class="st8" d="M207.05,89.5c-3.92-2.06-7.81-4.2-11.92-5.87c-0.25-0.1-0.47-0.3-0.7-0.05c-0.02,0.03,0.2,0.34,0.35,0.46
			c2.57,2.09,3.99,4.97,5.44,7.84c0.37,0.74,0.64,1.49,0.64,2.34c-0.01,1.17-0.51,1.8-1.72,1.78c-0.67-0.01-1.46,0.16-1.8-0.63
			c-0.46-1.05-0.41-2.11,0.17-3.14c0.24-0.42,1-0.54,0.66-1.31c-1.17-2.64-2.9-4.77-5.48-6.14c-0.44-0.23-0.93-0.18-0.66,0.45
			c0.82,1.94,0.42,4.23,1.8,6c0.67,0.87,0.46,1.71-0.3,2.35c-0.75,0.62-1.73,0.6-2.49,0.09c-0.82-0.54-0.76-1.71-0.26-2.21
			c1.69-1.69,0.66-3.38,0.28-5.08c-0.11-0.5-0.28-1.21-0.94-1.13c-0.25,0.03-0.5,0.74-0.61,1.18c-1.15,4.71-1.72,9.51-2.15,14.33
			c-0.03,1.24,0.11,2.46,0.36,3.67c0.62,2.97,3.28,5.17,6.49,5.23c3.33,0.06,4.83-0.17,5.67-4.36c0.32-1.59,1.23-2.5,2.87-2.74
			c1.55-0.22,3.14-0.4,4.62-0.88c4.66-1.5,6.1-6.18,2.76-9.8C209.23,90.91,208.2,90.11,207.05,89.5z"/>
		<path class="st2" d="M220.67,82.53c2.29-4.22,1.01-8.05-3.31-9.94c-1.33-0.58-0.75-1.04-0.38-1.78c1.77-3.52,1.01-6.56-2.26-8.67
			c-1.41-0.91-2.29-2.12-2.71-3.69c-0.3-1.12-0.53-2.26-0.83-3.38c-1.08-4.12-3.64-5.47-7.34-3.38c-3.24,1.84-6.35,2.2-9.77,0.93
			c-1.33-0.49-2.83-0.61-3.94,0.27c-1.37,1.09-2.28,0.59-3.52-0.17c-3.12-1.9-7.39-1.03-9.2,2.07c-1.23,2.1-2.66,3.42-5.09,3.79
			c-1.05,0.16-2.02,0.81-2.91,1.47c-0.86,0.64-1.47,1.45-1.62,2.52c-0.42,2.98-0.37,5.9,1.79,8.31c0.58,0.65,0.57,0.76-0.26,1.19
			c-4.14,2.12-6.26,5.52-6.19,10.24c0.03,2.16,0.63,3.92,2.79,4.76c1.61,0.62,1.67,1.76,1.24,3.15c-0.47,1.51-0.84,3.03-0.7,4.63
			c0.24,2.69,1.87,4.61,4.54,5.01c1.55,0.24,2.44,0.69,1.88,2.25c-0.07,3.33,0.6,4.65,2.66,5.34c0.99,0.33,2.04,0.24,3.05,0.09
			c1.28-0.19,2.17,0.18,2.52,1.45c0.64,2.36,2.52,3.55,5.21,2.35c2.79-1.24,5.16-0.87,7.79-0.35c0.77,0.15,1.63-0.03,2.44-0.14
			c1.87-0.26,3.4-1.29,3.67-3.1c0.48-3.24,2.6-4.02,5.32-4.28c0.74-0.07,1.48-0.26,2.21-0.42c2.31-0.52,4.08-1.91,4.74-4.1
			c0.58-1.93,1.88-2.45,3.48-2.85c0.73-0.18,1.48-0.31,2.16-0.61c3.23-1.39,4.76-5.72,2.73-8.34
			C219.57,85.45,219.74,84.23,220.67,82.53z M190.37,54.29c0.64-0.77,1.75-1.01,2.84-0.64c0.71,0.24,1.44,0.42,2.16,0.63
			c2.54,0.73,4.9,0.5,7.29-0.82c5.02-2.78,6.65-1.97,7.85,3.68c0.61,2.88,1.52,5.39,4.47,6.89c2.22,1.13,2.61,3.72,1.26,5.86
			c-2.45,3.9-5.61,6.82-10.43,7.5c-2.5,0.35-4.97,0.91-7.45,1.34c-0.46,0.08-0.94,0.02-1.41,0.03c0-0.68,0.59-0.9,1.01-1.15
			c2.32-1.39,4.06-3.64,6.76-4.48c1.37-0.43,1.55-1.58,1.44-2.83c-0.09-0.95-0.77-0.96-1.48-1.01c-1.31-0.09-2.16,0.47-2.28,1.77
			c-0.14,1.38-0.97,2.18-1.99,2.92c-1.6,1.17-3.17,2.38-4.91,3.33c-0.45,0.24-0.9,0.68-1.46,0.14c-0.51-0.48-1.02-0.92-0.83-1.73
			c0.55-2.44,1.54-4.65,3.38-6.43c0.66-0.64,1.49-0.6,2.27-0.79c1.04-0.26,1.64-0.92,1.75-2.01c0.09-0.91-0.18-1.59-1.04-2.02
			c-1.21-0.59-2.22-0.47-2.53,0.96c-0.28,1.28-1.02,2.22-1.8,3.15c-1.51,1.81-2.6,3.84-3.24,6.11c-0.21,0.75-0.34,1.39-1.33,1.54
			c-1.14,0.17-1.38-0.63-1.77-1.33c-1.82-3.26-2.25-6.83-2.3-10.91c-0.13-1.08,0.16-2.56,0.36-4.05
			C187.27,57.55,188.95,55.98,190.37,54.29z M168.83,65c0.03-3.19,1.14-4.7,4.61-5.47c2.18-0.48,3.56-1.43,4.59-3.49
			c1.68-3.39,6.15-3.95,8.65-1.37c0.49,0.5,0.62,0.85,0.35,1.57c-2.22,5.8-1.98,11.6,0.13,17.38c0.14,0.38,0.28,0.77,0.4,1.16
			c0.05,0.18,0.13,0.48,0.04,0.57c-0.27,0.27-0.46-0.05-0.63-0.21c-2.46-2.18-4.56-4.7-6.67-7.21c-0.54-0.64-0.4-1.2,0.32-1.7
			c1.1-0.76,1.28-1.8,0.4-2.8c-0.84-0.96-2.09-0.79-3.04-0.35c-1.19,0.55-0.9,1.7-0.46,2.68c1.76,3.9,5,6.61,7.76,9.71
			c0.57,0.64,1.41,1.05,1.61,1.99c-1,0.14-1.55-0.68-2.23-1.14c-3.48-2.33-7.01-4.32-11.37-4.77
			C170.89,71.31,168.27,68.63,168.83,65z M172.06,98.52c-2.7,0.04-4.46-1.76-4.5-4.45c-0.02-1.32,0.31-2.56,0.65-3.81
			c0.69-2.56,0.42-3.31-1.87-4.42c-1.55-0.75-2.2-1.91-2.28-3.55c-0.28-5.11,3.11-9.89,9.36-9.42c5.19-0.12,9.24,2.99,13.15,6.38
			c0.35,0.31,0.81,0.72,0.53,1.21c-0.34,0.59-0.87,0.07-1.27-0.04c-2.91-0.85-5.83-1.35-8.87-0.72c-1.47,0.31-2.64,1.07-3.77,1.96
			c-0.92,0.72-0.83,1.72-0.49,2.61c0.36,0.94,1.31,0.85,2.13,0.76c1.28-0.14,1.35-1.34,1.15-2.03c-0.52-1.86,0.54-2.01,1.86-2.24
			c2.57-0.46,5.01-0.07,7.39,0.92c0.25,0.11,0.56,0.2,0.56,0.51c0,0.37-0.36,0.31-0.59,0.37c-2.13,0.55-3.61,2.14-5.36,3.29
			c-1.04,0.68-1.18,1.59-0.97,2.66c0.14,0.75,0.78,0.64,1.31,0.64c1.28,0,1.76-0.88,2.01-1.94c0.54-2.26,1.84-3.38,4.06-3.48
			c0.68-0.03,1.15,0.02,0.57,0.84c-3.13,4.44-5.67,9.36-10.39,12.49C175.08,97.95,173.65,98.5,172.06,98.52z M187.12,109.59
			c-1.69,1.21-4,0.79-4.99-1.04c-1.02-1.89-2.49-2.47-4.56-2.28c-2.49,0.23-3.48-0.83-3.4-3.57c-0.07-1.3,0.4-2.53,1.75-3.44
			c4.11-2.79,7.6-6.17,10.01-10.59c0.49-0.91,1.02-1.92,2.12-2.35c0.28,0.97-0.2,1.87-0.31,2.79c-0.39,3.24-0.86,6.48-1.33,9.71
			c-0.43,2.98-0.06,5.87,1.28,8.54C188.23,108.45,187.92,109.01,187.12,109.59z M207.35,101.67c-1.48,0.48-3.07,0.66-4.62,0.88
			c-1.64,0.24-2.55,1.15-2.87,2.74c-0.84,4.19-2.34,4.42-5.67,4.36c-3.22-0.06-5.87-2.26-6.49-5.23c-0.25-1.21-0.39-2.42-0.36-3.67
			c0.43-4.82,1-9.62,2.15-14.33c0.11-0.44,0.36-1.15,0.61-1.18c0.65-0.08,0.82,0.63,0.94,1.13c0.39,1.7,1.42,3.39-0.28,5.08
			c-0.5,0.5-0.55,1.66,0.26,2.21c0.76,0.51,1.73,0.53,2.49-0.09c0.77-0.64,0.98-1.48,0.3-2.35c-1.37-1.77-0.98-4.06-1.8-6
			c-0.26-0.62,0.22-0.68,0.66-0.45c2.58,1.37,4.31,3.5,5.48,6.14c0.34,0.77-0.43,0.89-0.66,1.31c-0.58,1.03-0.63,2.09-0.17,3.14
			c0.34,0.78,1.13,0.61,1.8,0.63c1.21,0.03,1.71-0.61,1.72-1.78c0-0.85-0.27-1.61-0.64-2.34c-1.44-2.87-2.87-5.75-5.44-7.84
			c-0.15-0.12-0.37-0.44-0.35-0.46c0.23-0.25,0.45-0.05,0.7,0.05c4.11,1.67,8,3.81,11.92,5.87c1.16,0.61,2.19,1.41,3.07,2.37
			C213.45,95.49,212.02,100.17,207.35,101.67z M219.96,92.2c-1.16,1.89-2.91,2.57-4.99,2.57c-1.34,0.09-2.22-0.23-2.72-1.71
			c-0.68-2.01-2.36-3.31-4.15-4.38c-3.39-2.04-6.86-3.94-10.5-5.51c-0.42-0.18-1.08-0.29-0.98-0.85c0.04-0.25,0.72-0.06,1.12-0.01
			c2.91,0.35,5.82,0.66,8.73,1.02c1.17,0.15,2.22,0.41,2.6,1.85c0.38,1.45,1.68,1.17,2.73,1.05c0.98-0.11,1.37-0.83,1.32-1.76
			c-0.07-1.21-0.77-1.82-1.95-1.98c-3.98-0.55-7.96-1.11-11.94-1.68c-0.36-0.05-0.89,0.12-0.94-0.46c-0.01-0.06,0.59-0.19,0.91-0.27
			c3.05-0.74,6.18-1.04,9.19-1.98c1.92-0.6,3.64-1.5,5.12-2.89c1.6-1.51,2.98-1.73,4.57-0.85c1.79,0.99,2.92,3.08,2.67,4.92
			c-0.17,1.25-0.69,2.33-1.39,3.37c-0.98,1.47-1.33,3.05-0.07,4.53C220.62,88.75,221.11,90.33,219.96,92.2z"/>
	</g>
	<g>
		<path class="st6" d="M245.74,110.67c-3.56,1.9-7.48,3.13-11.49,4.01c-2.07,0.45-1.82-1.34-1.88-2.55
			c-0.43-8.84,6.78-14.67,15.43-12.67c1.5,0.35,1.8,0.86,1.56,2.23C248.8,104.89,246.81,107.47,245.74,110.67z"/>
		<path class="st6" d="M201.34,128.05c-3.38,0.84-6.46,2.89-9.7,4.37c-0.65,0.29-1.4,0.67-2.07,0.01c-0.66-0.67-0.17-1.41,0.08-2.05
			c1.05-2.66,3.18-4.58,5.04-7.08c4.2-5.21,9.69-9.41,15.37-13.38c0.73-0.53,1.96-1.12,2.55-0.83c0.81,0.39,0.46,1.66,0.29,2.57
			C211.52,118.84,210.14,125.85,201.34,128.05z"/>
		<path class="st6" d="M228.75,116.35c-0.94,1.16-12.9,5.33-13.59,5.1c-1.58-0.52-1.08-1.71-0.82-2.73
			c0.96-3.81,1.92-7.61,3.01-11.37c0.65-2.22,10.28-6.37,12.72-5.68c0.64,0.19,1.1,0.54,1.02,1.08
			C230.34,107.47,227.82,111.88,228.75,116.35z"/>
		<path class="st6" d="M259.52,116.66c-2.14-0.51-4.75-1.56-5.38-3.54c-0.7-2.25,2.29-2.37,3.73-3.25
			c3.35-2.05,6.77-3.96,10.17-5.89c0.44-0.24,1-0.25,1.51-0.36c-0.12,0.48-0.12,1.06-0.37,1.46c-1.82,2.83-3.7,5.61-5.54,8.4
			C262.38,114.73,261.86,117.22,259.52,116.66z"/>
		<path class="st6" d="M266.67,99.87c-4.15,3.46-8.67,6.34-13.85,8.05c-0.5,0.17-1.01,0.33-1.23,0.4c-1.12-1.16,1.82-8.8,3.18-8.95
			c3.66-0.45,7.38-0.69,11.07-0.89C266.63,98.44,268.16,98.61,266.67,99.87z"/>
		<path class="st6" d="M225.01,141.45c-0.85,0.13-1.94,0.45-3.03,0.47c-9.38,0.21-18.66-0.55-27.84-2.65
			c-0.84-0.19-2.04-0.6-2.27-1.19c-0.35-0.95,0.77-1.55,1.55-2.03c5.1-3.18,10.56-5.63,16.15-7.77c0.67-0.25,1.77-0.62,2.15-0.28
			c4.43,3.7,9.5,6.65,13.21,11.2C225.39,139.75,225.85,140.43,225.01,141.45z"/>
		<path class="st6" d="M239.07,137.5c-6.78,3.59-7.45,3.46-13.06-1.78c-2.44-2.3-5.1-4.36-7.66-6.55c-2.46-2.14-1.69-3.8,0.79-5.18
			c6.8-3.75,12.41-2.3,16.1,3.21c2.09,1.48,3.31,2.34,4.52,3.22C244.82,134.03,244.77,134.48,239.07,137.5z"/>
		<path class="st6" d="M254.76,124.71c-6.44,7.28-8.28,7.51-16.08,1.64c-1.77-1.33-3.23-3.05-4.86-4.59
			c-0.9-0.85-1.41-1.51-0.08-2.6c4.3-3.48,14.41-4.52,19.58-1.89C258.58,119.93,258.63,120.3,254.76,124.71z"/>
	</g>
	<g>
		<path class="st5" d="M111.39,45.07c-1.07-0.71-1.73-0.86-1.99,0.77c-0.31,1.95-0.95,3.85-1.31,5.79
			c-0.91,4.85,2.28,12.98,6.42,14.76c5.29,2.26,9.98,5.22,14.13,9.12c0.35,0.33,0.74,0.82,1.26,0.62c0.83-0.33,0.29-1,0.22-1.52
			c-0.77-5.66-2.62-11-5.24-16.03C121.81,52.68,116.65,48.79,111.39,45.07z"/>
		<path class="st7" d="M144.43,114.32c0.83-0.06,0.97-0.87,1.16-1.5c2.81-5.69,1.13-11.02-1.29-16.27
			c-0.64-1.38-0.93-3.49-2.57-3.58c-0.71-0.04-0.65,2.43-0.97,3.75c-0.07,0.29-0.18,0.57-0.21,0.87c-0.56,5.37-0.67,10.68,2.37,15.5
			C143.28,113.64,143.65,114.38,144.43,114.32z"/>
		<path class="st7" d="M123.41,104.15c-4.1-1.78-10.87-1.21-17.58-1.15c-0.38,0-1,0.06-1.1,0.28c-0.21,0.49,0.24,0.89,0.57,1.25
			c2.16,2.35,4.82,4.08,7.34,5.98c7.91,5.98,16.51,8.82,26.42,6.1c0.74-0.2,2.31-0.06,0.78-1.37
			C135.43,111.46,131.32,107.24,123.41,104.15z"/>
		<path class="st5" d="M135.68,69.52c1.06-4.89,1.61-10.15-0.92-15.25c-1.72-3.46-3.57-6.87-5.31-10.32c-0.74-1.47-1.38-3-2.06-4.51
			c-1.36,1.37-1.12,3.28-1.51,4.92c-1.07,4.58-1.14,9.07,1.14,13.56c1.92,3.78,3.36,7.83,4.54,11.94c0.35,1.21,0.46,3.34,1.37,3.35
			C134.49,73.24,134.71,71.17,135.68,69.52z"/>
		<path class="st5" d="M117.61,69.64c-6.63-2.94-13.49-2.66-20.4-1.41c-0.52,0.09-1.3-0.04-1.43,0.74c-0.1,0.58,0.55,0.75,0.89,1.07
			c3.1,2.91,6.09,5.94,8.85,9.19c5.99,7.06,15.39,6.9,22.48,1.84c1.09-0.78,1.29-1.32,0.47-2.59
			C125.79,74.32,122.05,71.57,117.61,69.64z"/>
		<path class="st5" d="M136.09,76.58c6.86-2.11,12.35-5.84,14.69-12.13c1.42-2.88,1.95-5.17,2.21-7.56
			c0.47-4.27-0.11-8.53,0.04-12.78c0.07-2.08-0.69-2-2.19-1.4c-4.37,1.75-7.58,5-10.85,8.18c-1.44,1.41-1.86,2.94-1.47,5.05
			c1.29,6.94,0.72,13.62-3.66,19.55c-0.23,0.31-0.67,0.65-0.39,1.02C134.91,77.1,135.54,76.75,136.09,76.58z"/>
		<path class="st5" d="M150.61,69.14c-2.02,3.35-5.08,5.78-8.79,7.29c-1.74,0.71-3.47,1.47-5.19,2.23c-0.86,0.38-1.1,0.91-0.11,1.4
			c4.92,2.44,9.94,3.94,15.37,1.59c4.88-2.11,8.2-6.13,11.99-9.6c3.48-3.18,3.52-3.14-0.77-5.1c-0.9-0.67-2.08-0.98-3.23-1.14
			C156.25,65.3,152.91,65.31,150.61,69.14z"/>
		<path class="st8" d="M130.14,83.13c0.03,0.24,0.05,0.54,0.03,0.93c-0.33,7.68,0.85,15.03,4.9,21.74c0.61,1.01,1.11,2.09,1.65,3.15
			c0.21,0.41,0.59,0.79,0.36,1.33c-0.43-0.21-0.91-0.37-1.29-0.65c-1.51-1.11-2.94-2.35-4.5-3.39c-9.22-6.16-19.61-5.38-29.92-4.96
			c-0.48,0.02-1.15,0.14-1.22,0.66c-0.09,0.62,0.54,0.98,0.99,1.34c4.59,3.62,9.2,7.2,14.09,10.43c6.3,4.15,13.02,6.18,20.59,4.99
			c1.56-0.25,3.17-0.25,4.75-0.27c2.3-0.02,4.38,0.48,6.35,1.89c3.55,2.54,7.24,4.91,11.67,5.66c0.74,0.13,1.91,0.63,2.12-0.24
			c0.24-1.02-0.98-1.36-1.85-1.53c-4.09-0.81-7.48-3.01-10.9-5.25c-1.66-1.09-1.95-2.04-1.13-3.86c4.02-8.92,0.83-16.82-3.72-24.46
			c-0.51-0.86-1.24-1.68-2.39-1.43c-1.23,0.27-1.23,1.45-1.36,2.4c-0.66,4.72-1.29,9.44-0.97,14.22c0.03,0.46-0.05,1.31-0.22,1.35
			c-0.7,0.16-0.85-0.59-1.12-1.03c-3.91-6.49-5.56-13.52-5.04-21.07c0.08-1.18,0.15-2.05,0.27-2.65
			C131.55,82.44,130.82,82.67,130.14,83.13z M140.56,97.58c0.03-0.29,0.14-0.58,0.21-0.87c0.32-1.32,0.26-3.79,0.97-3.75
			c1.63,0.1,1.93,2.2,2.57,3.58c2.41,5.24,4.1,10.58,1.29,16.27c-0.19,0.63-0.33,1.45-1.16,1.5c-0.78,0.05-1.15-0.68-1.51-1.25
			C139.89,108.26,140,102.95,140.56,97.58z M139.06,116.61c-9.9,2.73-18.51-0.12-26.42-6.1c-2.52-1.91-5.18-3.63-7.34-5.98
			c-0.33-0.36-0.79-0.76-0.57-1.25c0.09-0.22,0.71-0.27,1.1-0.28c6.71-0.06,13.48-0.63,17.58,1.15c7.92,3.09,12.03,7.31,16.44,11.09
			C141.38,116.55,139.81,116.4,139.06,116.61z"/>
		<path class="st2" d="M165.83,48.19c-2.23-0.34-3.28,1.24-3.4,2.92c-0.3,4.38-3.77,6.51-6.13,9.43c-0.27,0.34-0.67,0.81-1.21,0.52
			c-0.18-0.1-0.28-0.54-0.24-0.79c0.91-5.72,0.16-11.5,0.65-17.23c0.09-1.03,0.91-2.17-0.21-3.04c-1.26-0.99-2.45-0.12-3.62,0.35
			c-4.31,1.71-7.92,4.48-11.37,7.5c-0.33,0.29-0.71,0.83-1.2,0.49c-0.2-0.14-0.1-0.75-0.08-1.14c0.23-3.69,0.9-7.24,2.71-10.54
			c0.9-1.64,0.79-3.31-0.99-4.42c-1.24-0.78-2.58-0.68-3.52,0.42c-1.23,1.43-2.02,3.11-0.29,4.72c0.79,0.73,0.83,1.45,0.7,2.37
			c-0.35,2.45-0.61,4.92-0.98,7.37c-0.08,0.56-0.34,1.44-0.69,1.53c-0.66,0.18-0.82-0.69-1.08-1.18c-2.13-4.02-4.6-7.91-5.37-12.52
			c-0.12-0.71-0.28-1.38-1.1-1.59c-1.03-0.26-1.43,0.51-1.78,1.21c-0.44,0.88-0.87,1.8-1.12,2.75c-0.77,2.87-1.46,5.77-2.19,8.65
			c-0.12,0.46-0.3,0.9-0.45,1.34c-0.32-0.36-0.8-0.67-0.93-1.09c-1.12-3.7-4.25-6.7-3.46-11.1c0.36-1.99-1.21-3.26-3.15-3.73
			c-1.46-0.35-2.44,0.24-3.08,1.64c-0.89,1.94-0.16,3.37,1.43,4.31c4.25,2.54,4.85,7.21,6.71,11.15c0.17,0.36,0.54,0.92-0.01,1.23
			c-0.15,0.08-0.62-0.36-0.92-0.6c-2.79-2.22-5.56-4.47-8.37-6.68c-1.6-1.26-2.67-1.01-3.05,1.16c-0.3,1.76-0.51,3.56-1.08,5.24
			c-1.63,4.77-0.6,9.19,1.47,13.53c0.24,0.5,1.03,0.95,0.61,1.49c-0.44,0.56-1.1-0.02-1.57-0.29c-3.26-1.85-6.67-3.47-9.03-6.62
			c-0.9-1.2-2.33-2.53-3.98-1.07c-1.33,1.18-2,2.97-0.9,4.55c1.04,1.5,2.76,2.1,4.39,0.74c0.8-0.67,1.33-0.6,2.05-0.1
			c1.39,0.96,2.8,1.88,4.17,2.86c0.38,0.27,0.95,0.6,0.78,1.14c-0.18,0.55-0.84,0.36-1.29,0.41c-3.45,0.38-6.91,0.71-10.36,1.07
			c-0.59,0.06-1.22,0.11-1.52,0.74c-0.33,0.71,0.18,1.14,0.66,1.46c4.63,3.05,8.05,7.32,11.6,11.45c2.78,3.24,6.35,4.91,10.5,5.66
			c5,0.9,9.42-0.64,13.68-2.94c1.21-0.65,1.76-0.76,1.9,0.2c0.68-0.46,1.41-0.69,2.13-0.72c0.34-1.69,1.14-1.36,4.13-0.07
			c8.49,3.56,16.32,3.38,23.3-3.57c2.79-2.78,5.4-5.83,8.97-7.76c2.43-1.32,2.41-2.16-0.09-3.53c-3.14-1.72-6.42-3.12-9.91-4
			c-0.66-0.17-1.75-0.26-0.83-1.15c2.8-2.74,4.28-6.75,8.16-8.46c1.09-0.48,2.08-1.24,2.23-2.57
			C168.44,49.51,167.6,48.45,165.83,48.19z M128,81.07c-7.08,5.06-16.48,5.22-22.48-1.84c-2.76-3.25-5.74-6.27-8.85-9.19
			c-0.34-0.32-0.98-0.48-0.89-1.07c0.13-0.78,0.91-0.65,1.43-0.74c6.91-1.25,13.77-1.53,20.4,1.41c4.44,1.93,8.18,4.68,10.86,8.84
			C129.29,79.75,129.09,80.29,128,81.07z M130.12,74.6c0.07,0.52,0.61,1.2-0.22,1.52c-0.52,0.2-0.91-0.28-1.26-0.62
			c-4.16-3.9-8.85-6.86-14.13-9.12c-4.14-1.77-7.33-9.91-6.42-14.76c0.36-1.94,1.01-3.84,1.31-5.79c0.26-1.63,0.92-1.48,1.99-0.77
			c5.26,3.72,10.43,7.61,13.49,13.5C127.5,63.6,129.35,68.94,130.12,74.6z M131.56,69.87c-1.18-4.11-2.63-8.16-4.54-11.94
			c-2.28-4.48-2.21-8.97-1.14-13.56c0.38-1.64,0.15-3.56,1.51-4.92c0.68,1.5,1.31,3.04,2.06,4.51c1.74,3.45,3.59,6.85,5.31,10.32
			c2.53,5.1,1.99,10.36,0.92,15.25c-0.97,1.65-1.19,3.72-2.75,3.7C132.02,73.21,131.9,71.08,131.56,69.87z M134.86,75.49
			c4.37-5.92,4.94-12.61,3.66-19.55c-0.39-2.11,0.02-3.64,1.47-5.05c3.27-3.19,6.49-6.43,10.85-8.18c1.5-0.6,2.26-0.68,2.19,1.4
			c-0.15,4.26,0.43,8.51-0.04,12.78c-0.26,2.39-0.79,4.69-2.21,7.56c-2.34,6.29-7.82,10.02-14.69,12.13
			c-0.55,0.17-1.18,0.52-1.62-0.07C134.19,76.14,134.63,75.8,134.86,75.49z M159.88,65.81c1.15,0.16,2.33,0.47,3.23,1.14
			c4.29,1.96,4.25,1.92,0.77,5.1c-3.79,3.46-7.11,7.49-11.99,9.6c-5.43,2.35-10.45,0.85-15.37-1.59c-0.99-0.49-0.76-1.02,0.11-1.4
			c1.72-0.76,3.44-1.53,5.19-2.23c3.71-1.5,6.77-3.94,8.79-7.29C152.91,65.31,156.25,65.3,159.88,65.81z"/>
	</g>
	<path class="st3" d="M85.48,86.05c-1.05-1.32-2.06-2.67-3.15-3.96c-0.85-1.01-1.26-2.06-0.42-3.22c0.45-0.63,1.05-1.36,1.95-1.07
		c1.24,0.4,1.54,1.57,1.5,2.66c-0.07,2.03,1.49,3.17,2.34,4.68c2.75,4.92,6.1,9.51,8.3,14.75c0.16,0.39,0.35,1,0.94,0.88
		c0.15-0.03,0.26-0.7,0.23-1.06c-0.49-6.22-2.35-12.01-5.41-17.44c-0.64-1.14-1.89-1.39-2.73-2.21c-0.8-0.79-1.53-1.64-1.15-2.86
		c0.25-0.81,0.9-1.4,1.76-1.37c1.29,0.05,1.8,1.06,2.16,2.15c0.95,2.9,3.14,5.13,4.06,8.13c1.22,3.99,2.33,7.99,3.24,12.05
		c0.12,0.55-0.06,1.44,0.57,1.54c0.89,0.15,0.92-0.87,1.16-1.44c2.48-5.97,0.42-11.27-2.67-16.3c-1.45-2.36-3.2-4.53-5.48-6.22
		c-0.62-0.46-1.11-1.13-1.58-1.76c-0.77-1.05-0.67-2.06,0.42-2.83c1.02-0.72,2.17-0.37,2.56,0.58c2.72,6.63,8.67,11.59,9.69,19.1
		c0.63,4.61-0.7,8.58-3.16,12.38c-1.97,3.04-1.88,3.08,0.91,5.49c6.09,5.26,12.71,9.82,19.22,14.51c1.18,0.85,3.41,1.55,2.73,3.13
		c-0.31,0.72-2.42-1.06-3.54-1.91c-6.95-5.27-14.2-10.15-20.65-16.05c-1.28-1.17-2.3-1.2-3.88-0.23
		c-7.38,4.55-15.17,5.29-23.38,2.23c-3.32-1.24-6.37-3.28-10.07-3.46c-0.92-0.04-1.67-0.76-1.76-1.76
		c-0.08-0.89,0.57-1.46,1.29-1.85c1.11-0.59,1.79,0.22,2.61,0.81c6.16,4.44,12.98,6.6,20.62,5.84c0.68-0.07,1.38-0.24,2.02-0.49
		c0.7-0.27,1.96-0.21,1.93-1.03c-0.04-0.89-1.28-0.63-2-0.77c-5.77-1.13-11.38-2.74-16.7-5.26c-0.82-0.39-1.6-0.72-2.54-0.67
		c-0.85,0.05-1.55-0.35-1.99-1.09c-0.56-0.93-0.65-1.94,0.1-2.76c0.83-0.9,1.67-0.22,2.34,0.34c6.78,5.63,15.05,6.7,23.36,7.61
		c0.56,0.06,1.63-0.07,1.65-0.21c0.12-0.96-0.86-0.86-1.4-1.1c-5.7-2.55-11.45-5-16.92-8.05c-1-0.56-1.93-0.78-3.07-0.21
		c-1.15,0.58-2.12,0.11-2.68-1.08c-0.51-1.08-0.56-2.06,0.45-2.96c1.13-1,2.02-0.34,2.91,0.3c5.53,3.96,11.76,6.53,18.01,9.04
		c0.44,0.17,0.96,0.53,1.35,0.08c0.09-0.1-0.39-0.81-0.72-1.12c-3.32-3.27-6.66-6.51-9.98-9.76c-0.88-0.86-1.77-1.44-3.14-1.24
		c-1.2,0.18-2.16-0.46-2.36-1.75c-0.21-1.37,0.56-2.3,1.71-2.85c1.33-0.64,2.13,0.36,2.64,1.28c3.13,5.69,8.6,9.22,12.75,13.95
		c0.36,0.42,0.99,0.6,1.5,0.89c0.28-0.72-0.11-1.33-0.36-1.93C91.61,94.33,88.81,90.02,85.48,86.05z"/>
	<path class="st3" d="M211.52,152.53c1.65,0.37,3.28,0.77,4.94,1.09c1.3,0.25,2.28,0.81,2.36,2.24c0.04,0.78,0.04,1.72-0.84,2.06
		c-1.21,0.47-2.18-0.25-2.84-1.12c-1.22-1.62-3.16-1.52-4.76-2.16c-5.24-2.09-10.73-3.53-15.74-6.22c-0.37-0.2-0.9-0.55-1.28-0.09
		c-0.09,0.11,0.24,0.7,0.49,0.96c4.3,4.52,9.39,7.85,15.19,10.14c1.22,0.48,2.34-0.12,3.51,0c1.11,0.11,2.22,0.31,2.7,1.49
		c0.32,0.79,0.18,1.66-0.5,2.17c-1.03,0.77-2.07,0.32-3.03-0.31c-2.56-1.66-5.67-2-8.28-3.75c-3.46-2.33-6.85-4.73-10.11-7.31
		c-0.44-0.35-0.86-1.15-1.41-0.84c-0.78,0.45-0.17,1.26,0.01,1.85c1.84,6.2,6.78,9.01,12.35,10.98c2.61,0.92,5.34,1.5,8.17,1.37
		c0.77-0.03,1.57,0.18,2.33,0.38c1.26,0.33,1.82,1.18,1.46,2.46c-0.34,1.21-1.45,1.65-2.35,1.16c-6.29-3.44-14.04-3.54-19.57-8.72
		c-3.39-3.18-4.87-7.11-5.35-11.6c-0.39-3.6-0.48-3.58-4.17-3.69c-8.04-0.24-16.05,0.39-24.07,0.85c-1.45,0.08-3.62,0.94-4.1-0.71
		c-0.22-0.75,2.54-0.7,3.95-0.75c8.72-0.28,17.42-1.07,26.15-0.55c1.73,0.1,2.54-0.51,3.16-2.27c2.86-8.19,8.44-13.67,16.75-16.46
		c3.35-1.13,7.01-1.46,10-3.66c0.74-0.55,1.77-0.46,2.47,0.26c0.63,0.64,0.48,1.5,0.16,2.25c-0.49,1.16-1.53,0.96-2.54,1.01
		c-7.58,0.44-14.24,3.05-19.69,8.46c-0.49,0.48-0.92,1.05-1.26,1.65c-0.37,0.65-1.39,1.4-0.85,2.01c0.59,0.67,1.4-0.32,2.04-0.66
		c5.19-2.76,10.56-5.04,16.28-6.44c0.88-0.22,1.7-0.45,2.39-1.08c0.63-0.57,1.43-0.7,2.23-0.41c1.02,0.37,1.73,1.1,1.66,2.2
		c-0.08,1.23-1.16,1.22-2.03,1.21c-8.81-0.09-15.91,4.28-22.94,8.81c-0.48,0.31-1.23,1.08-1.15,1.2c0.51,0.82,1.21,0.13,1.78-0.03
		c6.03-1.62,12.04-3.34,18.21-4.41c1.12-0.2,1.99-0.61,2.52-1.77c0.53-1.18,1.58-1.42,2.76-0.85c1.07,0.52,1.73,1.25,1.51,2.58
		c-0.24,1.49-1.36,1.54-2.45,1.6c-6.79,0.41-13.24,2.34-19.68,4.34c-0.45,0.14-1.08,0.2-1.1,0.79c0,0.13,0.81,0.38,1.27,0.42
		c4.63,0.45,9.27,0.86,13.9,1.29c1.22,0.11,2.28,0,3.22-1.02c0.82-0.89,1.96-1,2.93-0.13c1.03,0.93,1.01,2.14,0.47,3.29
		c-0.63,1.33-1.88,1.07-2.86,0.67c-6.01-2.44-12.49-1.74-18.7-2.79c-0.54-0.09-1.15,0.16-1.72,0.25c0.23,0.73,0.92,0.96,1.49,1.27
		C201.54,149.96,206.43,151.55,211.52,152.53z"/>
	<g>
		<path class="st8" d="M145.56,146.03c-1.96,2.13-2.17,5.35-0.45,6.91c2.4,2.17,5.36,2.1,7.35-0.15c2.06-2.34,2.22-5.85,0.35-7.53
			C150.97,143.59,147.46,143.96,145.56,146.03z"/>
		<path class="st5" d="M168.47,129.65c-0.99,0.66-1.95,1.38-2.98,1.97c-0.8,0.46-1.52,1.69-2.57,0.87c-1.13-0.87-0.04-1.79,0.36-2.6
			c1.5-3.09,2.12-6.4,2.45-9.76c0.56-5.75-1.35-10.67-4.98-15.11c-3.51-4.29-7.1-8.55-9.6-13.55c-0.7-1.39-1.2-0.94-1.75,0.04
			c-5.61,10.01-8.2,20.78-7.91,32.23c0.03,1.35,0.56,2.71,0.99,4.02c0.27,0.82,0.56,1.73-0.31,2.07c-1.03,0.4-1.53-0.59-1.9-1.41
			c-0.16-0.35-0.18-0.77-0.28-1.15c-1.89-7.53-6.34-12.87-13.59-15.73c-6.64-2.62-13.65-3.33-20.69-3.79
			c-0.98-0.06-2.47-0.49-1.61,1.57c2.64,6.31,4.07,13.14,7.59,19.04c4.27,7.18,10.33,11.91,19.25,11.83
			c1.03-0.01,2.99-0.56,3.01,0.64c0.02,1.57-2.02,1.38-3.18,1.28c-8.16-0.73-15.27,1.61-21.4,7.01c-0.82,0.72-1.64,1.45-2.33,2.28
			c-3.66,4.44-7.21,8.97-11.69,12.65c-0.36,0.3-0.91,0.6-0.76,1.14c0.16,0.6,0.82,0.44,1.27,0.5c7.77,1.02,15.57,1.65,23.4,2.01
			c6.45,0.29,11.48-2.42,15.67-7.08c0.79-0.88,1.49-1.87,2.59-2.43c0.5-0.26,1.03-0.82,1.58-0.24c0.5,0.52,0.13,1.08-0.21,1.59
			c-1.28,1.92-2.87,3.64-4.69,4.96c-3.93,2.85-5.96,6.38-6.99,10.26c-0.69,3.94-0.88,7.95-0.47,11.98
			c0.55,5.43,1.61,10.79,1.74,16.26c0.01,0.24-0.11,0.41-0.27,0.51c0.29,0.45,0.93,0.08,2.47-0.88c5.39-3.35,10.8-6.65,16.36-9.71
			c1.83-1.01,3.34-2.45,4.84-3.91c6.13-5.98,7.39-13.07,4.93-21.04c-0.09-0.28-0.19-0.57-0.27-0.85c-0.31-1.03-0.87-2.07,0.18-3.02
			c0.48-0.44,1.04-0.62,1.63-0.28c1.16,0.66,1.58,1.62,1.32,2.99c-0.49,2.6,0.7,4.6,2.54,6.31c2.71,2.53,6,3.92,9.56,4.53
			c7.2,1.22,14.09,3.3,20.51,6.8c1.31,0.71,2.02,0.76,1.79-1.05c-0.6-4.72-1.35-9.43-1.73-14.17c-0.69-8.58-10.42-18.14-19.1-19.19
			c-2.35-0.28-4.69-0.93-7.09-0.37c-0.98,0.23-1.92,0.07-2.08-1.05c-0.21-1.45,0.95-1.52,1.97-1.52c1.88,0,3.77-0.02,5.65,0.09
			c8.71,0.54,15.94-2.32,21.52-9.16c2.66-3.26,5.81-5.95,9.53-7.95c0.42-0.22,1.08-0.49,1.12-0.82c0.11-0.77-0.73-0.77-1.23-1.01
			C191.01,122.65,179.58,122.21,168.47,129.65z M139.26,173.62c0.18-0.15,0.33-0.32,0.49-0.47c0.38-0.64,0.96-1.11,1.34-1.61
			c0.45-0.69,0.82-1.44,1.08-2.23c0.19-0.59,0.97-0.55,1.18-0.15c0,0,0,0,0,0c0.34,0.25,0.02,0.67-0.23,1.04
			c-0.69,1.75-1.73,3.24-3.2,4.47C139.31,175.17,138.66,174.12,139.26,173.62z M149.07,169.09c-0.06,3.61-1.06,7.01-3.02,10.05
			c-0.43,0.66-1.53,0.11-1.1-0.55c1.84-2.86,2.83-6.03,2.89-9.44C147.85,168.36,149.08,168.29,149.07,169.09z M131.09,156.32
			c-1.92,1.37-4.12,2.16-6.46,2.37c-0.79,0.07-0.85-1.16-0.06-1.23c2.15-0.19,4.11-0.93,5.87-2.18
			C131.08,154.82,131.74,155.86,131.09,156.32z M130.99,148.5c-2.54,0.04-4.97,0.58-7.3,1.61c-0.73,0.32-1.09-0.86-0.37-1.17
			c2.41-1.07,4.97-1.62,7.61-1.66C131.72,147.25,131.78,148.48,130.99,148.5z M127.55,125.54c-0.66-0.63-2.08-1.66-1.4-2.23
			c0.99-0.83,1.46,1.11,2.43,1.29c0.55,1.05,2.51,1.7,1.64,2.68C129.58,127.99,128.35,126.32,127.55,125.54z M122.63,129.01
			c-0.5-0.61,0.54-1.27,1.04-0.66c0.09,0.11,0.19,0.19,0.29,0.28c0.29,0.17,0.57,0.39,0.85,0.62c0.43,0.21,0.91,0.33,1.4,0.35
			c0.79,0.03,0.86,1.26,0.06,1.23C124.8,130.78,123.56,130.15,122.63,129.01z M168.91,164.06c0.69,1.04,2.17,1.55,2.38,3.05
			c-1.59-0.16-2.64-1.24-3.67-2.27c-0.82-0.82-2.52-2.09-1.66-2.78C166.89,161.31,167.88,163.27,168.91,164.06z M154.05,153.5
			c-3.17,3.42-7.27,3.81-10.22,0.95c-2.48-2.39-2.35-6.6,0.27-9.36c2.76-2.91,7.5-3.3,10.2-0.85
			C156.98,146.67,156.88,150.44,154.05,153.5z M175.92,161.6c-1.82-0.07-3.31-1.06-4.89-1.77c-0.56-0.25-1.07-0.64-1.27-1.28
			c0.86-0.37,1.37,0.03,1.89,0.24c1.54,0.63,3.12,1.18,4.37,2.34C176.09,161.18,175.95,161.6,175.92,161.6z M158.08,118.17
			c0.14,0.02,0.26,0.25,0.36,0.4c0.86,1.4,0.36,10.04-0.73,11.19c-0.16,0.07-0.44,0.29-0.68,0.25c-0.18-0.03-0.45-0.42-0.43-0.62
			c0.3-3.55,0.64-7.1,0.99-10.64C157.61,118.49,157.66,118.1,158.08,118.17z M150.73,127.7c-0.61-2.89-0.21-5.69,0.92-8.39
			c0.09-0.21,0.44-0.34,0.7-0.44c0.04-0.02,0.32,0.28,0.31,0.41c-0.32,2.94-0.66,5.87-0.54,8.76
			C151.35,128.73,150.87,128.35,150.73,127.7z M179.48,140.18c-2.99,1.33-6.09,2.33-9.34,2.75c-0.53,0.07-1.3,0.25-1.42-0.59
			c-0.09-0.64,0.55-0.73,1.01-0.84c3.17-0.76,6.34-1.51,9.51-2.24c0.27-0.06,0.57,0,0.85,0.01
			C180.16,139.8,179.82,140.03,179.48,140.18z M178.49,133.11c0.09,0.17-0.22,0.72-0.48,0.91c-1.68,1.2-3.37,2.38-5.1,3.5
			c-0.34,0.22-0.91,0.67-1.26,0.04c-0.29-0.52,0.3-0.85,0.54-1.26c1.55-1.41,3.46-2.23,5.27-3.23
			C177.8,132.89,178.28,132.71,178.49,133.11z"/>
		<path class="st2" d="M206.66,127.95c-1.64-0.9-3.43-1.54-5.19-2.2c-7.76-2.9-15.64-4.36-23.88-2.18c-3.09,0.82-5.95,2.16-8.78,3.6
			c-1.4,0.71-2.34,0.68-1.8-1.32c0.1-0.38,0.13-0.78,0.22-1.17c1.79-7.43,0.47-13.98-4.61-19.98c-4.19-4.95-8.61-9.89-10.25-16.53
			c-0.52-2.09-1.72-2.13-3.06-0.35c-0.47,0.63-0.8,1.36-1.18,2.06c-4.95,9.02-7.54,18.71-8.32,28.93c-0.05,0.62,0.28,1.58-0.58,1.74
			c-0.54,0.1-0.8-0.77-1.13-1.25c-2.77-3.97-6.14-7.16-10.73-9.09c-6.32-2.66-13.01-3.4-19.69-4.28c-1.86-0.24-3.76-0.3-5.64-0.35
			c-1.35-0.03-1.91,0.7-1.12,1.88c3.71,5.53,4.99,12.06,7.56,18.06c2.62,6.13,6.54,11.06,12.61,14.08c0.42,0.21,1.13,0.45,1.17,0.74
			c0.1,0.82-0.78,0.72-1.26,0.86c-7.45,2.15-13.2,6.6-17.74,12.8c-3.19,4.36-7.25,7.84-11.51,11.12c-0.72,0.56-2.32,0.55-1.95,1.81
			c0.41,1.37,1.88,0.68,2.86,0.64c5.07-0.19,10.11,0.11,15.14,0.71c5.9,0.71,11.8,1.72,17.77,0.71c1.29-0.22,1.78-0.08,1.26,1.46
			c-1.31,3.91-1.76,7.88-1.55,11.89c0,0.76,0.01,1.52,0.04,2.29c0.19,4.41,0.99,8.76,1.5,13.14c0.03,2.35,0.16,4.71-0.33,7.03
			c-0.15,0.72-0.72,1.7,0.14,2.17c0.77,0.43,1.42-0.48,2.02-0.9c5.58-3.97,11.56-7.27,17.51-10.64c7.35-4.15,12.95-9.87,13.87-18.85
			c0.17-1.7,0.68-2.08,2.11-1.08c3.25,2.26,6.96,3.36,10.78,4.07c7.27,1.34,14.29,3.31,20.56,7.39c0.67,0.43,1.38,0.97,2.18,0.48
			c0.97-0.59,0.65-1.59,0.49-2.43c-0.77-4.1-1.26-8.25-1.45-12.41c-0.45-10.23-5.95-17.12-14.33-22.18c-0.5-0.3-1.35-0.49-1.31-1.06
			c0.04-0.64,0.93-0.58,1.47-0.7c5.61-1.33,10.18-4.32,13.88-8.67c3.38-3.97,7.05-7.51,12.09-9.34
			C208.5,129.94,208.08,128.74,206.66,127.95z M203.86,129.29c-0.05,0.32-0.71,0.59-1.12,0.82c-3.73,1.99-6.88,4.69-9.53,7.95
			c-5.58,6.84-12.81,9.69-21.52,9.16c-1.88-0.12-3.77-0.09-5.65-0.09c-1.03,0-2.18,0.06-1.97,1.52c0.16,1.12,1.11,1.27,2.08,1.05
			c2.4-0.56,4.74,0.09,7.09,0.37c8.68,1.05,18.41,10.61,19.1,19.19c0.38,4.74,1.13,9.45,1.73,14.17c0.23,1.8-0.48,1.76-1.79,1.05
			c-6.43-3.5-13.31-5.58-20.51-6.8c-3.56-0.6-6.85-2-9.56-4.53c-1.84-1.71-3.03-3.71-2.54-6.31c0.26-1.38-0.16-2.33-1.32-2.99
			c-0.58-0.33-1.14-0.15-1.63,0.28c-1.05,0.95-0.49,1.99-0.18,3.02c0.09,0.28,0.19,0.57,0.27,0.85c2.46,7.98,1.2,15.06-4.93,21.04
			c-1.5,1.46-3.01,2.9-4.84,3.91c-5.56,3.06-10.97,6.36-16.36,9.71c-1.54,0.96-2.18,1.32-2.47,0.88c0.16-0.1,0.27-0.27,0.27-0.51
			c-0.14-5.47-1.2-10.83-1.74-16.26c-0.41-4.03-0.22-8.04,0.47-11.98c1.04-3.89,3.07-7.41,6.99-10.26c1.82-1.32,3.4-3.04,4.69-4.96
			c0.34-0.51,0.71-1.07,0.21-1.59c-0.55-0.58-1.08-0.01-1.58,0.24c-1.1,0.56-1.8,1.54-2.59,2.43c-4.18,4.66-9.21,7.37-15.67,7.08
			c-7.83-0.36-15.63-0.98-23.4-2.01c-0.45-0.06-1.11,0.1-1.27-0.5c-0.15-0.54,0.4-0.85,0.76-1.14c4.48-3.68,8.04-8.21,11.69-12.65
			c0.69-0.84,1.52-1.56,2.33-2.28c6.13-5.4,13.24-7.74,21.4-7.01c1.16,0.1,3.19,0.29,3.18-1.28c-0.01-1.21-1.98-0.65-3.01-0.64
			c-8.92,0.09-14.98-4.65-19.25-11.83c-3.51-5.9-4.95-12.73-7.59-19.04c-0.86-2.06,0.63-1.63,1.61-1.57
			c7.04,0.46,14.05,1.17,20.69,3.79c7.26,2.86,11.71,8.2,13.59,15.73c0.1,0.38,0.12,0.8,0.28,1.15c0.37,0.82,0.86,1.81,1.9,1.41
			c0.87-0.34,0.58-1.25,0.31-2.07c-0.43-1.31-0.96-2.67-0.99-4.02c-0.3-11.45,2.3-22.22,7.91-32.23c0.55-0.98,1.06-1.43,1.75-0.04
			c2.5,5.01,6.09,9.27,9.6,13.55c3.63,4.44,5.54,9.36,4.98,15.11c-0.33,3.36-0.95,6.67-2.45,9.76c-0.39,0.81-1.48,1.73-0.36,2.6
			c1.06,0.82,1.78-0.42,2.57-0.87c1.03-0.59,1.99-1.31,2.98-1.97c11.11-7.44,22.53-7,34.17-1.37
			C203.13,128.52,203.98,128.52,203.86,129.29z"/>
		<path class="st2" d="M144.1,145.09c-2.63,2.77-2.75,6.97-0.27,9.36c2.95,2.85,7.05,2.47,10.22-0.95c2.83-3.05,2.93-6.83,0.26-9.26
			C151.6,141.79,146.86,142.18,144.1,145.09z M152.46,152.78c-1.99,2.26-4.95,2.32-7.35,0.15c-1.72-1.56-1.52-4.78,0.45-6.91
			c1.9-2.06,5.41-2.44,7.25-0.78C154.69,146.93,154.52,150.44,152.46,152.78z"/>
		<path class="st2" d="M157.03,130.01c0.24,0.04,0.52-0.18,0.68-0.25c1.09-1.15,1.59-9.79,0.73-11.19c-0.1-0.15-0.22-0.38-0.36-0.4
			c-0.42-0.07-0.46,0.32-0.49,0.58c-0.35,3.55-0.69,7.09-0.99,10.64C156.58,129.6,156.84,129.98,157.03,130.01z"/>
		<path class="st2" d="M169.73,141.5c-0.46,0.11-1.1,0.2-1.01,0.84c0.12,0.84,0.89,0.66,1.42,0.59c3.26-0.42,6.35-1.43,9.34-2.75
			c0.34-0.15,0.68-0.37,0.61-0.91c-0.28-0.01-0.58-0.07-0.85-0.01C176.07,139.99,172.9,140.74,169.73,141.5z"/>
		<path class="st2" d="M152.35,118.86c-0.26,0.11-0.61,0.23-0.7,0.44c-1.13,2.7-1.54,5.51-0.92,8.39c0.14,0.65,0.62,1.03,1.39,0.33
			c-0.12-2.88,0.22-5.82,0.54-8.76C152.68,119.15,152.4,118.85,152.35,118.86z"/>
		<path class="st2" d="M177.45,133.08c-1.81,0.99-3.72,1.82-5.27,3.23c-0.24,0.41-0.83,0.74-0.54,1.26
			c0.35,0.63,0.93,0.18,1.26-0.04c1.73-1.12,3.43-2.3,5.1-3.5c0.26-0.19,0.58-0.74,0.48-0.91
			C178.28,132.71,177.8,132.89,177.45,133.08z"/>
		<path class="st2" d="M165.97,162.06c-0.86,0.7,0.85,1.96,1.66,2.78c1.03,1.03,2.08,2.11,3.67,2.27c-0.22-1.51-1.69-2.01-2.38-3.05
			C167.88,163.27,166.89,161.31,165.97,162.06z"/>
		<path class="st2" d="M169.76,158.54c0.2,0.65,0.71,1.03,1.27,1.28c1.59,0.71,3.08,1.71,4.89,1.77c0.03,0,0.17-0.42,0.1-0.48
			c-1.25-1.16-2.84-1.71-4.37-2.34C171.12,158.57,170.61,158.17,169.76,158.54z"/>
		<path class="st2" d="M130.22,127.28c0.88-0.97-1.09-1.62-1.64-2.68c-0.97-0.19-1.45-2.12-2.43-1.29c-0.68,0.57,0.74,1.59,1.4,2.23
			C128.35,126.32,129.58,127.99,130.22,127.28z"/>
		<path class="st2" d="M143.11,170.19c0.25-0.37,0.57-0.79,0.23-1.04c0,0,0,0,0,0c-0.21-0.4-0.98-0.43-1.18,0.15
			c-0.26,0.8-0.63,1.54-1.08,2.23c-0.38,0.49-0.96,0.97-1.34,1.61c-0.16,0.16-0.31,0.33-0.49,0.47c-0.6,0.5,0.06,1.55,0.66,1.04
			C141.38,173.42,142.42,171.94,143.11,170.19z"/>
		<path class="st2" d="M126.21,129.6c-0.49-0.02-0.97-0.14-1.4-0.35c-0.28-0.22-0.55-0.45-0.85-0.62c-0.1-0.09-0.2-0.18-0.29-0.28
			c-0.5-0.61-1.54,0.05-1.04,0.66c0.93,1.14,2.17,1.77,3.64,1.82C127.07,130.86,127,129.63,126.21,129.6z"/>
		<path class="st2" d="M130.43,155.28c-1.76,1.25-3.72,1.99-5.87,2.18c-0.79,0.07-0.73,1.3,0.06,1.23c2.35-0.21,4.54-1,6.46-2.37
			C131.74,155.86,131.08,154.82,130.43,155.28z"/>
		<path class="st2" d="M147.84,169.15c-0.06,3.4-1.05,6.58-2.89,9.44c-0.43,0.67,0.67,1.22,1.1,0.55c1.95-3.04,2.95-6.44,3.02-10.05
			C149.08,168.29,147.85,168.36,147.84,169.15z"/>
		<path class="st2" d="M123.32,148.93c-0.72,0.32-0.35,1.49,0.37,1.17c2.32-1.03,4.76-1.57,7.3-1.61c0.8-0.01,0.73-1.24-0.06-1.23
			C128.29,147.31,125.73,147.86,123.32,148.93z"/>
	</g>
</g>
</svg>
